<?xml version="1.0" encoding="UTF-8"?>
<svg id="Ebene_1" xmlns="http://www.w3.org/2000/svg" version="1.1" viewBox="0 0 500 500">
  <!-- Generator: Adobe Illustrator 29.8.1, SVG Export Plug-In . SVG Version: 2.1.1 Build 2)  -->
  <defs>
    <style>
      .st0 {
        fill: #fff;
      }
    </style>
  </defs>
  <path class="st0" d="M148.4,154.1v218.7c-.6-.3-1.1-.8-1.7-1.1-4.8-2.8-9.3-5.9-13.8-9v-185.4l-82.8,33.8v62c-.6-.8-1.1-1.7-1.4-2.5-5.1-8.7-9.9-17.8-14.1-26.8v-43.1h0l98.1-40h0l15.5-6.2.3-.3Z"/>
  <path class="st0" d="M239.1,182v225.1c-5.4-.8-10.4-2-15.5-3.1v-211.1l-15.5-5.6v212.5c-2-.6-3.9-1.1-5.9-2-3.4-1.1-6.5-2.3-9.6-3.4v-212.5l-15.2-5.4v211.6c-5.4-2.3-10.4-4.8-15.5-7.6v-226h0l14.1,5.1,1.4.6,30.4,11h0l15.5,5.6,15.5,5.6.3-.6Z"/>
  <polygon class="st0" points="338.9 71 338.9 277.6 323.4 273.3 323.4 93.8 239.1 126.2 239.1 182 223.6 176.7 223.6 115.5 223.6 115.5 323.4 77.2 338.9 71"/>
  <polygon class="st0" points="465.4 114.7 465.4 313.6 449.9 309.4 449.9 125.4 431.9 118.4 431.9 304.1 416.4 299.8 416.4 112.4 399.8 106.2 399.8 295 384.3 290.5 384.3 100.3 367.1 93.6 367.1 285.7 351.6 281.2 351.6 71 367.1 76.9 384.3 83.7 399.8 89.6 449.9 108.8 465.4 114.7"/>
  <path class="st0" d="M465.4,325.7l-140.3-39.4-67.6,130.7c-8.5-.6-16.9-1.7-25.1-3.1-5.1-.8-10.4-2-15.5-3.1s-10.4-2.5-15.5-4.2c-2-.6-3.9-1.1-5.9-2-3.4-1.1-6.5-2.3-9.6-3.4-5.1-2-10.1-3.9-15.2-6.2-5.4-2.3-10.4-4.8-15.5-7.6-4.5-2.5-9.3-5.1-13.5-7.9-.6-.3-1.1-.8-1.7-1.1-4.8-2.8-9.3-5.9-13.8-9-32.1-22.5-59.7-52.1-80.6-85.7-.8-1.1-1.7-2.5-2.3-3.7-.6-.8-1.1-1.7-1.4-2.5-5.1-8.7-9.9-17.8-14.1-26.8C12,216.7,2.7,179.5,1.3,141.5v17.2c.8,31.6,7,61.7,17.5,89.9,20.3,49.9,53.3,93.6,95,126.5,4.2,3.1,8.5,6.2,12.7,9,2.3,1.7,4.8,3.1,7,4.5s4.5,2.8,6.5,3.9c2.5,1.4,5.1,2.8,7.6,4.2s5.1,2.8,7.9,3.9c5.1,2.5,10.1,5.1,15.5,7,5.1,2.3,10.1,4.2,15.2,5.9,3.1,1.1,6.5,2.3,9.6,3.4,2,.6,3.9,1.1,5.9,1.7,18.3,5.4,37.5,8.7,56.9,10.1h3.7c2.5,0,5.1,0,7.9.3h.6s2.8-4.8,5.1-9.6l.8-2h0l51.8-105.1,57.2,91.6,51.8,7.6c22-10.4,42.5-23.4,61.4-38.6l-33-47.6-.6.3Z"/>
</svg>