<?xml version="1.0" encoding="UTF-8"?>
<svg id="Ebene_1" xmlns="http://www.w3.org/2000/svg" version="1.1" xmlns:xlink="http://www.w3.org/1999/xlink" viewBox="0 0 500 500">
  <!-- Generator: Adobe Illustrator 29.7.1, SVG Export Plug-In . SVG Version: 2.1.1 Build 8)  -->
  <defs>
    <style>
      .st0 {
        fill: #6097d0;
      }

      .st1 {
        fill: #d6d4d4;
        isolation: isolate;
        opacity: .5;
      }

      .st2 {
        fill: #5c5856;
      }

      .st3 {
        fill: none;
      }

      .st4 {
        fill: #a29f9d;
      }

      .st5 {
        clip-path: url(#clippath-1);
      }

      .st6 {
        clip-path: url(#clippath-3);
      }

      .st7 {
        fill: #6599d2;
      }

      .st8 {
        fill: #649cd4;
      }

      .st9 {
        display: none;
      }

      .st10 {
        clip-path: url(#clippath-2);
      }

      .st11 {
        fill: #5c5857;
      }

      .st12 {
        clip-path: url(#clippath);
      }
    </style>
    <clipPath id="clippath">
      <path class="st3" d="M-13.3,171.1c15.7-27.3,50.3-36.6,77.4-20.9s36.4,50.6,20.8,77.9c-15.7,27.3-50.3,36.6-77.5,20.9-27.1-15.8-36.4-50.7-20.7-77.9ZM203.1,171.1c15.7-27.3,50.3-36.6,77.4-20.9,27.1,15.7,36.4,50.6,20.8,77.9-15.7,27.3-50.3,36.6-77.5,20.9-27-15.8-36.3-50.7-20.7-77.9ZM506.1,343.2c-11.2,11.3-25.5,16.9-42.9,16.9s-16.2-1.5-23.6-4.5c-7.3-3-13.5-7.1-18.7-12.4-5.1-5.3-9.2-11.6-12.1-19-3-7.4-4.4-15.4-4.4-24.2s1.5-16.4,4.4-23.7,7.1-13.6,12.4-18.8c5.3-5.2,11.6-9.2,18.9-12.2,7.3-3,15.3-4.5,24-4.5s16.2,1.5,23.3,4.5c7.1,3,13.4,7.1,18.7,12.4,5.3,5.3,9.4,11.5,12.4,18.5,3,7.1,4.4,14.8,4.4,23.2,0,18-5.6,32.6-16.8,43.8ZM144,260.7c10.6,18.9,26.1,35.3,46.2,47,16.8,9.8,35,15,53.1,16.3l-54,94.1h80.8l64.4-112.2c.5,16.2,3.4,31.2,8.5,44.9,5.8,15.3,13.9,28.5,24.3,39.6s22.8,19.8,37.1,26.1c14.3,6.3,30,9.4,47.1,9.4s29.8-2.6,40.8-7.7c11-5.2,21.2-13.5,30.6-25.1v24.9h66.2V82h-70v121c-9.6-9.4-19.9-16.4-30.8-20.9s-23.6-6.8-38.3-6.8-31.8,3.1-46,9.4c-10.3,4.6-19.6,10.4-27.9,17.6.9-44-21.5-87.1-62-110.7-59.2-34.6-135.1-14.2-169.4,45.5-.2.4-.5.9-.7,1.3-10.5-18.9-26.1-35.3-46.2-47-59.3-34.4-135.2-14-169.5,45.7-34.3,59.7-13.9,136.1,45.4,170.5,16.8,9.8,35,15,53.1,16.3l-54,94.1H53.6l89.6-156c.3-.4.6-.9.8-1.3Z"/>
    </clipPath>
    <clipPath id="clippath-1">
      <rect class="st3" x="-635.1" y="-635.8" width="1770.8" height="1770.8"/>
    </clipPath>
    <clipPath id="clippath-2">
      <path class="st3" d="M-2.1,44.9c2-3.5,6.4-4.6,9.8-2.7,3.4,2,4.6,6.4,2.6,9.9s-6.4,4.6-9.8,2.7c-3.4-2-4.6-6.5-2.6-9.9ZM26.5,44.9c2-3.5,6.4-4.6,9.8-2.7,3.4,2,4.6,6.4,2.6,9.9s-6.4,4.6-9.8,2.7c-3.4-2-4.6-6.5-2.6-9.9ZM69.8,66.7c-1.4,1.4-3.2,2.1-5.4,2.1s-2.1-.2-3-.6c-.9-.4-1.7-.9-2.4-1.6-.7-.7-1.2-1.5-1.5-2.4-.3-.9-.6-2-.6-3.1s.2-2.1.6-3c.4-.9.9-1.7,1.6-2.4.7-.7,1.5-1.2,2.4-1.6s1.9-.6,3.1-.6,2.1.2,3,.6,1.7.9,2.4,1.6c.7.7,1.2,1.5,1.6,2.3s.6,1.9.6,2.9c-.3,2.5-1,4.4-2.4,5.8ZM71.4,33.6v15.3c-1.2-1.2-2.5-2.1-3.9-2.7-1.4-.6-3-.9-4.8-.9s-4,.4-5.8,1.2-3.3,1.9-4.7,3.3c-1.3,1.4-2.3,3.1-3.1,5-.8,1.9-1.1,4-1.1,6.3s.4,4.5,1.1,6.4c.7,1.9,1.8,3.6,3.1,5,1.3,1.4,2.9,2.5,4.7,3.3,1.8.8,3.8,1.2,6,1.2s3.8-.3,5.2-1c1.4-.7,2.7-1.7,3.9-3.2v3.2h8.4v-42.4h-9ZM18.4,41.9c.2-.4.4-.9.7-1.3,4.3-7.6,14-10.2,21.5-5.8,7.5,4.4,10.1,14.1,5.8,21.6l-11.4,19.8h-10.3l6.8-11.9c-2.3-.2-4.6-.8-6.7-2.1-2.9-1.7-5.1-4.2-6.4-7.1-.2.4-.4.9-.7,1.3l-11.3,19.8H-3.9l6.9-11.9c-2.3-.2-4.6-.8-6.7-2.1-7.5-4.4-10.1-14.1-5.8-21.6,4.3-7.6,14-10.2,21.5-5.8,2.9,1.7,5.1,4.2,6.4,7.1ZM91.1,58.2c.3-1.7,1.1-2.9,2.3-3.8,1.2-.9,2.6-1.3,4.3-1.3s3.2.5,4.4,1.4c1.2.9,2,2.2,2.3,3.7h-13.3ZM112,55.3c-.8-2-1.9-3.7-3.3-5.1-1.4-1.4-3.1-2.6-5-3.4-1.9-.8-4-1.2-6.2-1.2s-4.1.4-6,1.2c-1.9.8-3.5,2-4.9,3.4-1.4,1.4-2.5,3.1-3.3,5.1s-1.2,4-1.2,6.2.4,4.3,1.2,6.2c.8,1.9,1.9,3.6,3.3,5,1.4,1.4,3,2.5,4.9,3.3s3.9,1.2,6.1,1.2c3.2,0,6-.9,8.5-2.7,2.4-1.7,4.3-4.1,5.7-7.1h-9.2c-.9.9-1.8,1.5-2.6,1.8-.8.3-1.7.5-2.8.5-1.8,0-3.2-.5-4.4-1.5-1.2-1-1.9-2.3-2.1-4h22.1c.6-3.1.3-6.1-.8-8.9ZM137.6,54.9c-.4-5.8-4.9-9.3-11.3-9.3s-11.4,3.8-11.4,9.6,2,6.4,9.4,8.7c4.4,1.4,5.4,2.2,5.4,3.9s-1.5,2.3-3.1,2.3-3.1-.8-3.4-2.7h-8.8c.6,6,5.4,9.8,12,9.8s12-3.9,12-10.1-2.3-7.1-9.3-9c-4.1-1.1-5.5-1.9-5.5-3.5s1.1-2,2.6-2,2.7.5,2.7,2.2h8.7ZM145.3,43.4c2.9,0,5.3-2.4,5.3-5.3s-2.4-5.3-5.3-5.3-5.3,2.4-5.3,5.3,2.3,5.3,5.3,5.3ZM149.7,76.2h-8.9v-29.7h8.9v29.7ZM166.6,52.2c2.7,0,4.9,2.2,4.9,4.9s-2.2,4.9-4.9,4.9-4.9-2.2-4.9-4.9c0-2.7,2.2-4.9,4.9-4.9ZM172.8,82.3c-1,1.4-2.9,1.9-4.5,1.9-1.9,0-4.4-.3-5.7-1.9-1.2-1.5-.9-3.6.7-4.6.5-.3,1-.5,1.5-.6h4.4c1.9,0,4.4.5,4.3,2.9,0,.9-.3,1.7-.7,2.3ZM164.2,70.3c-3.6-.6-3.5-2-2.6-2.7,8.2,3.1,18.1-.8,18.2-10.3,0-3.5-1.2-5.7-2.2-6.7.8-1.4,1.6-2.2,3.4-2.6l-3.7-6.4c-3.4.3-5.6,2.4-6.6,4.5-2-.8-6.1-.9-9.3.2-1.6.6-3,1.3-4.2,2.4s-2.1,2.3-2.8,3.8-1,3.1-1,4.8.7,4.9,2,6.8c-3.6,3.5-3.4,8.8.3,12.1-.4.3-.8.6-1.1,1-3.3,3.6-1.8,8.7,2.1,11.3,4.8,3.5,13.4,3.7,18.7,1.3,9.3-3.8,9.6-17.6-1.2-19.4-3-.5-6.4.5-10-.1ZM183.1,76.2h8.9v-16.6c0-3.9,1.7-5.8,5-5.8s2.8.5,3.5,1.5,1.1,2.6,1.1,4.7v16.2h8.9v-18.6c0-1.2-.1-2.2-.1-3.1-.1-.9-.3-1.7-.5-2.4-.2-.7-.5-1.3-.9-1.9-.4-.6-.9-1.1-1.4-1.7-.9-.9-2.1-1.7-3.5-2.2s-2.9-.8-4.4-.8-3.4.3-4.7,1-2.4,1.7-3.4,3.2v-3.2h-8.4v29.7ZM235.5,54.9c-.4-5.8-4.9-9.3-11.3-9.3s-11.4,3.8-11.4,9.6,2,6.4,9.4,8.7c4.4,1.4,5.4,2.2,5.4,3.9s-1.5,2.3-3.1,2.3-3.1-.8-3.4-2.7h-8.8c.6,6,5.4,9.8,12,9.8s12-3.9,12-10.1-2.3-7.1-9.3-9c-4.1-1.1-5.5-1.9-5.5-3.5s1.1-2,2.6-2,2.7.5,2.7,2.2h8.7Z"/>
    </clipPath>
    <clipPath id="clippath-3">
      <rect class="st3" x="-53" y="-107.5" width="330.7" height="330.7"/>
    </clipPath>
  </defs>
  <polygon class="st0" points="267.4 348.3 266.9 349.2 267.3 348.3 267.4 348.3"/>
  <g>
    <path class="st7" d="M146.3,166.7v189.8c-.5-.3-1-.7-1.5-.9-4-2.5-8-5.1-11.9-7.9v-161l-72.1,29.4v53.9c-.5-.7-.8-1.4-1.3-2.2-4.4-7.5-8.5-15.4-12.2-23.3v-37.4h0l85.2-34.8h.2c0,0,0,0,0,0l13.5-5.7Z"/>
    <polygon class="st8" points="47.5 207.1 47.4 207.1 47.4 207.1 47.5 207.1"/>
    <polygon class="st8" points="132.8 172.2 132.8 172.3 132.7 172.3 132.8 172.2"/>
    <polygon class="st8" points="132.7 172.3 132.8 172.2 132.8 172.3 132.7 172.3"/>
    <path class="st7" d="M225,190.9v195.4c-4.5-.7-9-1.7-13.4-2.8v-183.1l-13.4-4.8v184.3c-1.7-.6-3.4-1-5.1-1.6-2.8-.9-5.6-2-8.4-3v-184.5l-13.1-4.7v183.7c-4.6-2.1-9-4.2-13.4-6.6v-196.1h0l12.1,4.3,1.3.5,26.4,9.4h0l13.4,4.8,13.5,4.8Z"/>
    <polygon class="st8" points="198.2 181.3 198.2 181.3 198.1 181.3 198.2 181.3"/>
    <path class="st8" d="M211.6,133.2h0Z"/>
    <polygon class="st7" points="311.8 94.6 311.8 273.9 298.3 270 298.3 114.2 225 142.4 225 190.9 211.6 186.1 211.6 133.2 211.6 133.2 298.3 99.8 311.8 94.6"/>
    <polygon class="st7" points="421.5 132.4 421.5 305.2 408.1 301.3 408.1 141.7 392.4 135.7 392.4 296.8 378.9 293 378.9 130.5 364.6 125.1 364.6 288.9 351.1 285.1 351.1 119.8 336.1 114 336.1 280.8 322.6 277 322.6 94.5 336.1 99.7 351.1 105.5 364.6 110.6 408.1 127.2 421.5 132.4"/>
    <path class="st7" d="M481.7,402.6l-129.8-18.9-49.7-79.6-45.1,91.3h0l-.8,1.8c-2,4.2-4.3,8.3-4.3,8.3h-.4c-2.2,0-4.5,0-6.7-.3h-.3c-.5,0-1.1,0-1.6,0s-.7,0-1.1,0c-17-1.1-33.6-4-49.4-8.7-1.7-.5-3.4-.9-5.1-1.5-2.8-.8-5.6-1.8-8.4-2.8-4.4-1.5-8.8-3.3-13.1-5.1-4.6-2-9-4-13.4-6.2-2.2-1.1-4.6-2.3-6.7-3.6-2.2-1.1-4.4-2.4-6.7-3.7-2-1.1-3.8-2.2-5.7-3.5-2.1-1.2-4.1-2.5-6.2-3.9-28.9-19.4-53.5-44.8-72-74.4-.8-1.3-1.8-2.8-2.5-4.1-2.2-3.6-4.1-7.1-6.1-10.8-1.7-3.2-3.3-6.4-4.9-9.7-14-29.5-22.2-62.3-23.1-96.7,0-1.9,0-3.7,0-5.6v-.5c0-1.4,0-2.8,0-4.1,0-1.5,0-3.1,0-4.6,1.3,33.2,9.5,65.3,23.1,94.9,3.7,8,7.7,15.7,12.2,23.3.4.7.8,1.5,1.3,2.2.7,1.1,1.3,2.2,2,3.3,18.2,29.3,42.1,54.8,70,74.4,3.8,2.7,7.9,5.3,11.9,7.9.6.3,1,.7,1.5.9,3.8,2.3,7.9,4.6,11.8,6.7,4.4,2.3,8.9,4.6,13.4,6.6,4.3,2,8.7,3.7,13.1,5.4,2.8,1,5.5,2.1,8.4,3,1.7.6,3.4,1.1,5.1,1.6,4.4,1.4,8.9,2.5,13.4,3.7,4.4,1.1,8.9,2,13.4,2.8,7.1,1.2,14.3,2.2,21.7,2.6l58.8-113.6,121.9,34.1,60.1,87.1Z"/>
  </g>
  <g id="_x39_9d_logo" class="st9">
    <g class="st12">
      <g class="st5">
        <rect class="st11" x="-99.4" y="63.6" width="699.7" height="373.2"/>
      </g>
    </g>
  </g>
  <g id="TEMPLATE__x28_delete_x29_" class="st9">
    <path class="st1" d="M-249.6-250v1000h1000V-250H-249.6ZM550.4,550H-49.6V-50h600v600Z"/>
    <g class="st10">
      <g class="st6">
        <rect class="st11" x="-13.7" y="30.6" width="252.2" height="62.8"/>
      </g>
    </g>
    <g>
      <path class="st2" d="M-6.6,135.8H.4v3.1h-10.4v-16.8h3.3v13.7h0Z"/>
      <path class="st2" d="M14.7,132.8c0,3.8-2.7,6.4-6.4,6.4s-6.4-2.6-6.4-6.4,2.7-6.3,6.4-6.3c3.7,0,6.4,2.5,6.4,6.3ZM5.2,132.8c0,2,1.3,3.5,3.2,3.5s3.1-1.5,3.1-3.5-1.2-3.5-3.1-3.5-3.2,1.4-3.2,3.5Z"/>
      <path class="st2" d="M28.3,129.3h-1.8c.1.4.2.9.2,1.4,0,2.5-2,4.2-4.8,4.2s-1.4-.1-2-.3c-.2.2-.3.5-.3.9,0,.6.5,1,1.2,1h2.9c2.5,0,4,1.2,4,3.5s-2.1,4.2-5.4,4.2-5.5-1.3-5.5-3.7.6-1.8,1.2-2.1c-.7-.5-1.4-1.4-1.4-2.6s.5-2,1.2-2.6c-.5-.7-.8-1.5-.8-2.5,0-2.5,2.1-4.3,4.9-4.3s1.2,0,1.7.3h4.6v2.6h0ZM21.1,138.9c-.7.1-1.2.6-1.2,1.4s1,1.7,2.5,1.7,2.3-.6,2.3-1.7-.7-1.3-1.7-1.3h-1.9ZM20.1,130.7c0,1.1.7,1.9,1.8,1.9s1.8-.8,1.8-1.9-.7-2-1.8-2c-1.1.1-1.8.9-1.8,2Z"/>
      <path class="st2" d="M42.1,132.8c0,3.8-2.7,6.4-6.4,6.4s-6.4-2.6-6.4-6.4,2.7-6.3,6.4-6.3c3.7,0,6.4,2.5,6.4,6.3ZM32.6,132.8c0,2,1.3,3.5,3.2,3.5s3.1-1.5,3.1-3.5-1.2-3.5-3.1-3.5-3.2,1.4-3.2,3.5Z"/>
      <path class="st2" d="M53.6,126.7h2.8v2.8h-2.8v4.9c0,1.2.4,1.8,1.6,1.8s.9-.1,1.3-.2v2.7c-.4.1-1,.3-2,.3-2.7,0-4-1.1-4-3.8v-5.7h-2v-2.8h2v-2.9h3.1v2.9Z"/>
      <path class="st2" d="M70,132.8v1h-8.5c0,1.6,1.2,2.7,2.9,2.7s2.1-.5,2.4-1.4h3c-.7,2.6-2.6,4.1-5.6,4.1s-6.1-2.5-6.1-6.3,2.4-6.4,6.1-6.4c3.3-.1,5.8,1.9,5.8,6.3ZM61.5,131.6h5.3c0-1.5-1-2.5-2.6-2.5-1.5-.1-2.6,1-2.7,2.5Z"/>
      <path class="st2" d="M89.8,131v7.9h-3.1v-7.2c0-1.4-.6-2.2-1.7-2.2s-2.1.9-2.1,2.8v6.6h-3.1v-7.2c0-1.4-.6-2.2-1.7-2.2s-2.1,1-2.1,3v6.4h-3.1v-12.2h2.7l.2,1.6c.6-1,1.7-1.8,3.2-1.8s2.9.8,3.5,2.1c.6-1.2,1.8-2.1,3.5-2.1,2.5-.1,3.8,1.7,3.8,4.5Z"/>
      <path class="st2" d="M105.7,132.8c0,3.6-2.4,6.4-5.7,6.4s-3-.7-3.7-1.6v6.5h-3.1v-17.3h2.7l.2,1.6c.7-1,1.8-1.9,3.9-1.9,3.3,0,5.7,2.7,5.7,6.3ZM96.3,132.7h0c0,2.2,1.6,3.4,3.1,3.4s3.1-1.3,3.1-3.4-1.3-3.4-3.1-3.4c-1.6,0-3.1,1.2-3.1,3.4Z"/>
      <path class="st2" d="M111.5,138.9h-3.1v-17.5h3.1v17.5Z"/>
      <path class="st2" d="M124.4,130.9v8h-2.7l-.2-1.5c-.6,1-1.8,1.8-3.5,1.8s-3.7-1.3-3.7-3.5,1.6-3.3,3.8-3.7l3.1-.6v-.5c0-1.2-.6-1.8-1.7-1.8s-1.8.6-1.8,1.6h-3c0-2.5,2-4.3,4.9-4.3s4.8,1.5,4.8,4.5ZM118.9,134c-.8.2-1.4.6-1.4,1.4s.5,1.2,1.4,1.2,1.5-.4,1.9-1.1c.3-.4.4-1,.4-1.6v-.4l-2.3.5Z"/>
      <path class="st2" d="M131.5,126.7h2.8v2.8h-2.8v4.9c-.1,1.2.3,1.8,1.5,1.8s.9-.1,1.3-.2v2.7c-.4.1-1,.3-2,.3-2.7,0-4-1.1-4-3.8v-5.7c.1,0-1.9,0-1.9,0v-2.8h2v-2.9h3.1v2.9Z"/>
      <path class="st2" d="M147.9,132.8v1h-8.5c.1,1.6,1.2,2.7,2.9,2.7s2.1-.5,2.4-1.4h3c-.7,2.6-2.6,4.1-5.6,4.1s-6.1-2.5-6.1-6.3,2.4-6.4,6.1-6.4c3.3-.1,5.8,1.9,5.8,6.3ZM139.4,131.6h5.3c0-1.5-1-2.5-2.6-2.5-1.5-.1-2.6,1-2.7,2.5Z"/>
      <path class="st4" d="M160.9,122.5c-2,2.7-3,5-3,8.6s1,6,3,8.6l-2.2,1.5c-2.2-2.7-3.7-5.7-3.7-10.1s1.5-7.4,3.7-10.1l2.2,1.5Z"/>
      <path class="st4" d="M168.9,138.9h-3.3v-11.6h-3.5v-2.8c2.6,0,4-.6,4.4-2.4h2.4v16.8h0Z"/>
      <path class="st4" d="M183.7,130.4c0,5.4-2.1,8.7-6,8.7s-5.9-3.4-5.9-8.7,2.1-8.7,5.9-8.7,6,3.4,6,8.7ZM175.1,130.4c0,3.6.9,5.7,2.6,5.7s2.6-2.1,2.6-5.7-.9-5.6-2.6-5.6c-1.8,0-2.6,2.1-2.6,5.6Z"/>
      <path class="st4" d="M197.6,130.4c0,5.4-2.1,8.7-6,8.7s-5.9-3.4-5.9-8.7,2.1-8.7,5.9-8.7,6,3.4,6,8.7ZM189,130.4c0,3.6.9,5.7,2.6,5.7s2.6-2.1,2.6-5.7-.9-5.6-2.6-5.6c-1.7,0-2.6,2.1-2.6,5.6Z"/>
      <path class="st4" d="M211.6,130.4c0,5.4-2.1,8.7-6,8.7s-5.9-3.4-5.9-8.7,2.1-8.7,5.9-8.7,6,3.4,6,8.7ZM203,130.4c0,3.6.9,5.7,2.6,5.7s2.6-2.1,2.6-5.7-.9-5.6-2.6-5.6c-1.7,0-2.6,2.1-2.6,5.6Z"/>
      <path class="st4" d="M228.4,130.3l5.7,8.5h-3.9l-4-6.1-4,6.1h-3.9l5.6-8.5-5.5-8.3h3.9l3.9,5.8,3.9-5.8h3.9l-5.6,8.3Z"/>
      <path class="st4" d="M247.3,138.9h-3.3v-11.6h-3.5v-2.8c2.6,0,4-.6,4.4-2.4h2.4v16.8h0Z"/>
      <path class="st4" d="M262.1,130.4c0,5.4-2.1,8.7-6,8.7s-6-3.4-6-8.7,2.1-8.7,6-8.7,6,3.4,6,8.7ZM253.5,130.4c0,3.6.9,5.7,2.6,5.7s2.6-2.1,2.6-5.7-.9-5.6-2.6-5.6c-1.8,0-2.6,2.1-2.6,5.6Z"/>
      <path class="st4" d="M276,130.4c0,5.4-2.1,8.7-6,8.7s-6-3.4-6-8.7,2.1-8.7,6-8.7,6,3.4,6,8.7ZM267.4,130.4c0,3.6.9,5.7,2.6,5.7s2.6-2.1,2.6-5.7-.9-5.6-2.6-5.6c-1.7,0-2.6,2.1-2.6,5.6Z"/>
      <path class="st4" d="M290,130.4c0,5.4-2.1,8.7-6,8.7s-6-3.4-6-8.7,2.1-8.7,6-8.7,6,3.4,6,8.7ZM281.4,130.4c0,3.6.9,5.7,2.6,5.7s2.6-2.1,2.6-5.7-.9-5.6-2.6-5.6c-1.7,0-2.6,2.1-2.6,5.6Z"/>
      <path class="st4" d="M305.3,132.8c0,3.6-2.4,6.4-5.7,6.4s-3-.7-3.6-1.6v6.5h-3.1v-17.3h2.7l.2,1.6c.7-1,1.8-1.9,3.9-1.9,3.2,0,5.6,2.7,5.6,6.3ZM295.9,132.7h0c0,2.2,1.6,3.4,3.1,3.4s3.1-1.3,3.1-3.4-1.3-3.4-3.1-3.4c-1.6,0-3.1,1.2-3.1,3.4Z"/>
      <path class="st4" d="M314.4,132.7l3.8,6.2h-3.6l-2.4-3.8-2.4,3.8h-3.6l3.8-6.2-3.7-6h3.6l2.2,3.5,2.2-3.5h3.6l-3.5,6Z"/>
      <path class="st4" d="M325,131.1c0,4.4-1.6,7.4-3.8,10.1l-2.2-1.5c2-2.7,3-5,3-8.6s-1-6-3-8.6l2.2-1.5c2.3,2.8,3.8,5.7,3.8,10.1Z"/>
    </g>
    <g>
      <path class="st4" d="M-8,193.2H-3.6v1.3h-4.4v-1.3Z"/>
      <path class="st4" d="M5.2,194.4v4.7h-1.5v-12.2h3.7c2.4,0,4.2,1.1,4.2,3.8s-1.8,3.8-4.3,3.8h-2.1ZM7.3,193.2c1.8,0,2.8-.9,2.8-2.6s-1-2.6-2.7-2.6h-2.2v5.2h2.1Z"/>
      <path class="st4" d="M13.7,186.4h1.4v12.6h-1.4v-12.6Z"/>
      <path class="st4" d="M17.9,192.9c0-1.5,1.2-2.5,3.2-2.5s3.1.9,3.1,3.1v3.4c0,.7.1.9.8,1v1.2h-.2c-1.3,0-1.8-.5-1.9-1.5h0c-.5,1-1.5,1.6-2.7,1.6-1.7,0-2.7-.9-2.7-2.4s.4-1.7,1.3-2.1c.9-.5,2.2-.6,4.1-.7v-.4c0-1.5-.6-2.1-1.8-2.1s-1.7.7-1.8,1.4h-1.4ZM22.8,195.2v-.2c-1.8.1-2.9.2-3.4.6-.3.2-.5.6-.5,1,0,.9.6,1.3,1.5,1.3,1.1,0,2.4-.6,2.4-2.7Z"/>
      <path class="st4" d="M32.3,193.2c0-.9-.7-1.7-1.9-1.7s-2.3,1.3-2.3,3.3.6,3.3,2.3,3.3,2-1.2,2.1-1.8h1.3c-.2,1.9-1.6,2.9-3.4,2.9s-3.8-1.7-3.8-4.4,1.4-4.5,3.8-4.5,3.2.8,3.3,2.8c0,0-1.4,0-1.4,0Z"/>
      <path class="st4" d="M39.2,199.3c-2.6,0-3.8-1.9-3.8-4.4s1.3-4.5,3.8-4.5,3.5,1.9,3.5,4.1v.7h-5.8c0,1.7.8,2.9,2.4,2.9s1.8-.8,1.9-1.3h1.4c-.4,1.5-1.6,2.5-3.4,2.5ZM41.2,194c0-1.4-.6-2.5-2.1-2.5s-2.1,1.1-2.3,2.6h4.4Z"/>
      <path class="st4" d="M48.7,190.6h1.4l1.8,5.3c.3.8.4,1.3.4,1.3h0s0-.5.4-1.3l1.7-5.3h1.6l-3.1,9c-.7,1.9-1.2,2.7-3.1,2.7s-.6-.1-.9-.1v-1.2c.3.1.6.1.7.1,1.1,0,1.4-.4,1.8-1.5l.2-.5-2.9-8.5Z"/>
      <path class="st4" d="M57.2,194.8c0-2.6,1.4-4.4,3.8-4.4s3.8,1.8,3.8,4.4-1.4,4.4-3.8,4.4c-2.5.1-3.8-1.7-3.8-4.4ZM58.7,194.8c0,2.1.7,3.3,2.3,3.3s2.3-1.2,2.3-3.3-.7-3.3-2.3-3.3-2.3,1.3-2.3,3.3Z"/>
      <path class="st4" d="M68.6,195.8c0,.6,0,1.3.3,1.7s.7.6,1.3.6c1.6,0,2.3-1,2.3-2.9v-4.6h1.5v8.4h-1.4v-1.4h0c-.4.9-1.3,1.6-2.7,1.6s-2.7-.8-2.7-2.8v-5.9h1.4v5.3h0Z"/>
      <path class="st4" d="M77.1,190.6h1.4v1.6h0c.4-.9,1.4-1.8,2.7-1.8h0v1.5h-.3c-1.5,0-2.5.9-2.5,2.5v4.6h-1.4v-8.4h0Z"/>
      <path class="st4" d="M88,186.4h1.4v12.6h-1.4v-12.6Z"/>
      <path class="st4" d="M91.9,194.8c0-2.6,1.4-4.4,3.8-4.4s3.8,1.8,3.8,4.4-1.4,4.4-3.8,4.4c-2.5.1-3.8-1.7-3.8-4.4ZM93.4,194.8c0,2.1.7,3.3,2.3,3.3s2.3-1.2,2.3-3.3-.7-3.3-2.3-3.3-2.3,1.3-2.3,3.3Z"/>
      <path class="st4" d="M101.5,199.9h1.4c.2.7.7,1.2,2.1,1.2s2.4-.6,2.4-2.4v-1.2h0c-.4.8-1.4,1.6-2.7,1.6s-3.4-1.1-3.4-4.2,1.5-4.3,3.6-4.3,2.2.8,2.5,1.5h0v-1.3h1.4v8.2c0,2.4-1.6,3.4-3.8,3.4-1.7-.2-3.3-.8-3.5-2.5ZM107.4,194.4c0-1.7-.9-2.8-2.4-2.8s-2.2,1.3-2.2,3.2.5,3.1,2.3,3.1,2.3-1.2,2.3-2.6v-.9h0Z"/>
      <path class="st4" d="M111.2,194.8c0-2.6,1.4-4.4,3.8-4.4s3.8,1.8,3.8,4.4-1.4,4.4-3.8,4.4c-2.5.1-3.8-1.7-3.8-4.4ZM112.7,194.8c0,2.1.7,3.3,2.3,3.3s2.3-1.2,2.3-3.3-.7-3.3-2.3-3.3-2.3,1.3-2.3,3.3Z"/>
      <path class="st4" d="M124.6,190.6h1.5l1.6,5.7c0,.5.3,1.1.3,1.1h0s.2-.6.3-1.1l1.8-5.7h1.5l1.8,5.7c.2.5.3,1.1.3,1.1h0s.1-.6.3-1.1l1.7-5.7h1.4l-2.6,8.4h-1.5l-1.5-5c-.2-.8-.5-1.8-.5-1.8h0s-.3,1-.5,1.8l-1.6,5h-1.5l-2.8-8.4Z"/>
      <path class="st4" d="M139.1,187.1h1.5v1.6h-1.5v-1.6ZM139.1,190.6h1.5v8.4h-1.5v-8.4Z"/>
      <path class="st4" d="M145.5,188.2v2.4h2.1v1.1h-2.1v5c0,.9.4,1.2,1.3,1.2s.9-.1.9-.1v1.2s-.6.1-1.3.1c-1.6,0-2.3-.8-2.3-2.2v-5.2h-1.5v-1.1h.3c1.1,0,1.4-.3,1.4-1.9v-.6h1.2Z"/>
      <path class="st4" d="M155.1,193.8c0-.6,0-1.3-.3-1.7s-.8-.6-1.3-.6c-1.6,0-2.3,1-2.3,2.4v5.1h-1.4v-12.6h1.4v5.6h0c.4-.8,1.3-1.6,2.6-1.6s2.7.8,2.7,2.8v5.9h-1.4v-5.3Z"/>
      <path class="st4" d="M159.6,187.1h1.5v1.6h-1.5v-1.6ZM159.6,190.6h1.5v8.4h-1.5v-8.4Z"/>
      <path class="st4" d="M169.6,193.8c0-.6,0-1.3-.3-1.7s-.8-.6-1.3-.6c-1.6,0-2.3,1-2.3,2.4v5.1h-1.4v-8.4h1.4v1.4h0c.4-.9,1.4-1.6,2.7-1.6s2.7.8,2.7,2.8v5.9h-1.4v-5.3h0Z"/>
      <path class="st4" d="M180.4,188.2v2.4h2.1v1.1h-2.1v5c0,.9.4,1.2,1.3,1.2s.9-.1.9-.1v1.2s-.6.1-1.3.1c-1.6,0-2.3-.8-2.3-2.2v-5.2h-1.5v-1.1h.3c1.1,0,1.4-.3,1.4-1.9v-.6h1.2Z"/>
      <path class="st4" d="M190,193.8c0-.6,0-1.3-.3-1.7s-.8-.6-1.3-.6c-1.6,0-2.3,1-2.3,2.4v5.1h-1.4v-12.6h1.4v5.6h0c.4-.8,1.3-1.6,2.6-1.6s2.7.8,2.7,2.8v5.9h-1.4v-5.3Z"/>
      <path class="st4" d="M197.5,199.3c-2.6,0-3.8-1.9-3.8-4.4s1.3-4.5,3.8-4.5,3.5,1.9,3.5,4.1v.7h-5.8c.1,1.7.8,2.9,2.4,2.9s1.8-.8,1.9-1.3h1.4c-.3,1.5-1.6,2.5-3.4,2.5ZM199.5,194c0-1.4-.6-2.5-2.1-2.5s-2.1,1.1-2.3,2.6h4.4Z"/>
      <path class="st4" d="M212.9,193.2c-.1-.9-.7-1.7-1.9-1.7s-2.3,1.3-2.3,3.3.6,3.3,2.3,3.3,2-1.2,2.1-1.8h1.3c-.2,1.9-1.6,2.9-3.4,2.9s-3.8-1.7-3.8-4.4,1.4-4.5,3.8-4.5,3.2.8,3.3,2.8c0,0-1.4,0-1.4,0Z"/>
      <path class="st4" d="M216.7,190.6h1.4v1.6h0c.4-.9,1.4-1.8,2.7-1.8h.1v1.5h-.3c-1.5,0-2.5.9-2.5,2.5v4.6h-1.4v-8.4h0Z"/>
      <path class="st4" d="M222.2,194.8c0-2.6,1.4-4.4,3.8-4.4s3.8,1.8,3.8,4.4-1.4,4.4-3.8,4.4c-2.5.1-3.8-1.7-3.8-4.4ZM223.7,194.8c0,2.1.7,3.3,2.3,3.3s2.3-1.2,2.3-3.3-.7-3.3-2.3-3.3-2.3,1.3-2.3,3.3Z"/>
      <path class="st4" d="M232.2,190.6h1.4v1.4h0c.5-.9,1.4-1.6,2.7-1.6s3.4,1.1,3.4,4.3-1.6,4.6-3.5,4.6-2.2-.7-2.5-1.4h0v4.2h-1.4v-11.5h0ZM236,198.1c1.5,0,2.2-1.2,2.2-3.4s-.5-3.1-2.3-3.1-2.4,1.3-2.4,2.7v.9c.1,1.6.9,2.9,2.5,2.9Z"/>
      <path class="st4" d="M242.1,190.6h1.4v1.4h0c.5-.9,1.4-1.6,2.7-1.6s3.4,1.1,3.4,4.3-1.6,4.6-3.5,4.6-2.2-.7-2.5-1.4h0v4.2h-1.4v-11.5h0ZM245.9,198.1c1.5,0,2.2-1.2,2.2-3.4s-.5-3.1-2.3-3.1-2.4,1.3-2.4,2.7v.9c.1,1.6.9,2.9,2.5,2.9Z"/>
      <path class="st4" d="M252,187.1h1.5v1.6h-1.5v-1.6ZM252.1,190.6h1.5v8.4h-1.5v-8.4Z"/>
      <path class="st4" d="M262,193.8c0-.6,0-1.3-.3-1.7s-.8-.6-1.3-.6c-1.6,0-2.3,1-2.3,2.4v5.1h-1.4v-8.4h1.4v1.4h0c.4-.9,1.4-1.6,2.7-1.6s2.7.8,2.7,2.8v5.9h-1.5v-5.3Z"/>
      <path class="st4" d="M266,199.9h1.4c.2.7.7,1.2,2.1,1.2s2.4-.6,2.4-2.4v-1.2h0c-.4.8-1.4,1.6-2.7,1.6s-3.4-1.1-3.4-4.2,1.5-4.3,3.5-4.3,2.2.8,2.5,1.5h0v-1.3h1.4v8.2c0,2.4-1.5,3.4-3.8,3.4-1.5-.2-3.2-.8-3.4-2.5ZM271.9,194.4c0-1.7-.9-2.8-2.4-2.8s-2.2,1.3-2.2,3.2.5,3.1,2.3,3.1,2.3-1.2,2.3-2.6v-.9h0Z"/>
      <path class="st4" d="M280.4,199.9h1.4c.2.7.7,1.2,2.1,1.2s2.4-.6,2.4-2.4v-1.2h0c-.4.8-1.4,1.6-2.7,1.6s-3.4-1.1-3.4-4.2,1.5-4.3,3.5-4.3,2.2.8,2.5,1.5h0v-1.3h1.4v8.2c0,2.4-1.5,3.4-3.8,3.4-1.5-.2-3.2-.8-3.4-2.5ZM286.3,194.4c0-1.7-.9-2.8-2.4-2.8s-2.2,1.3-2.2,3.2.5,3.1,2.3,3.1,2.3-1.2,2.3-2.6v-.9h0Z"/>
      <path class="st4" d="M292.2,195.8c0,.6,0,1.3.3,1.7s.7.6,1.3.6c1.6,0,2.3-1,2.3-2.9v-4.6h1.4v8.4h-1.4v-1.4h0c-.4.9-1.3,1.6-2.7,1.6s-2.7-.8-2.7-2.8v-5.9h1.4v5.3h.1Z"/>
      <path class="st4" d="M300.7,187.1h1.5v1.6h-1.5v-1.6ZM300.7,190.6h1.5v8.4h-1.5v-8.4Z"/>
      <path class="st4" d="M312.1,199.1h-1.4v-1.4h0c-.5.8-1.4,1.6-2.7,1.6s-3.4-1.1-3.4-4.4,1.5-4.5,3.6-4.5,2.1.7,2.4,1.5h0v-5.5h1.4v12.7h.1ZM310.7,194.5c0-1.8-.9-2.9-2.3-2.9s-2.4,1.3-2.4,3.3.6,3.3,2.2,3.3,2.4-1.2,2.4-2.7v-1h0Z"/>
      <path class="st4" d="M318.3,199.3c-2.6,0-3.8-1.9-3.8-4.4s1.3-4.5,3.8-4.5,3.5,1.9,3.5,4.1v.7h-5.8c.1,1.7.8,2.9,2.4,2.9s1.8-.8,1.9-1.3h1.4c-.3,1.5-1.6,2.5-3.4,2.5ZM320.3,194c0-1.4-.6-2.5-2.1-2.5s-2.1,1.1-2.3,2.6h4.4Z"/>
      <path class="st4" d="M328.4,192.7c-.1-.8-.7-1.2-1.7-1.2s-1.6.6-1.6,1.4.4,1,1.3,1.1l1.3.2c1.8.3,2.4,1,2.4,2.4s-1.4,2.6-3.3,2.6-3.2-.8-3.3-2.6h1.4c.1.7.4,1.5,1.9,1.5s1.9-.5,1.9-1.4-.2-1-1.3-1.2l-1.3-.2c-1.5-.2-2.3-.9-2.3-2.3s1.1-2.6,3.1-2.6,2.9.9,3,2.3h-1.5Z"/>
      <path class="st4" d="M331.9,197.1h2v1.9h-2v-1.9Z"/>
      <path class="st4" d="M-8,223.2H-3.6v1.3h-4.4v-1.3Z"/>
      <path class="st4" d="M8.6,216.6c3,0,5.5,1.9,5.5,6.3s-2.5,6.3-5.5,6.3-5.5-2-5.5-6.3c0-4.3,2.6-6.3,5.5-6.3ZM12.6,223c0-3.4-1.6-5.2-4-5.2s-3.9,1.7-3.9,5.2,1.6,5.1,3.9,5.1,4-1.8,4-5.1Z"/>
      <path class="st4" d="M18.3,225.8c0,.6,0,1.3.3,1.7s.7.6,1.3.6c1.6,0,2.3-1,2.3-2.9v-4.6h1.4v8.4h-1.4v-1.4h0c-.4.9-1.3,1.7-2.7,1.7s-2.7-.8-2.7-2.8v-5.9h1.4v5.2h.1Z"/>
      <path class="st4" d="M28.6,218.2v2.4h2.1v1.1h-2.1v5c0,.9.4,1.2,1.3,1.2s.9-.1.9-.1v1.2s-.6.1-1.3.1c-1.7,0-2.3-.8-2.3-2.2v-5.2h-1.5v-1.1h.3c1.1,0,1.4-.3,1.4-1.9v-.6c-.2.1,1.2.1,1.2.1Z"/>
      <path class="st4" d="M32.7,216.4h1.4v12.6h-1.4v-12.6Z"/>
      <path class="st4" d="M37.3,217.1h1.5v1.6h-1.5v-1.6ZM37.3,220.6h1.5v8.4h-1.5v-8.4Z"/>
      <path class="st4" d="M47.3,223.8c0-.6,0-1.3-.3-1.7s-.8-.6-1.3-.6c-1.6,0-2.3,1-2.3,2.4v5.1h-1.4v-8.4h1.4v1.4h0c.4-.9,1.4-1.6,2.7-1.6s2.7.8,2.7,2.8v5.9h-1.4v-5.3h-.1Z"/>
      <path class="st4" d="M54.9,229.3c-2.6,0-3.8-1.9-3.8-4.4s1.3-4.5,3.8-4.5,3.5,1.9,3.5,4.1v.7h-5.8c0,1.7.8,2.9,2.4,2.9s1.8-.8,1.9-1.3h1.4c-.3,1.5-1.6,2.5-3.4,2.5ZM56.9,224c0-1.4-.6-2.5-2.1-2.5s-2.1,1.1-2.3,2.6h4.4Z"/>
      <path class="st4" d="M65,222.9c0-1.5,1.2-2.5,3.2-2.5s3.1.9,3.1,3.1v3.4c0,.7,0,.9.8,1v1.2h-.2c-1.3,0-1.8-.5-1.9-1.5h0c-.4,1-1.5,1.6-2.7,1.6-1.7,0-2.7-.9-2.7-2.4s.4-1.7,1.3-2.1c.9-.5,2.2-.6,4.1-.7v-.4c0-1.5-.6-2.1-1.8-2.1s-1.7.7-1.8,1.4h-1.4ZM69.9,225.2v-.2c-1.8.1-2.9.2-3.4.6-.3.2-.5.6-.5,1,0,.9.6,1.3,1.5,1.3,1.1,0,2.4-.6,2.4-2.7Z"/>
      <path class="st4" d="M74.3,216.4h1.4v12.6h-1.4v-12.6Z"/>
      <path class="st4" d="M78.9,216.4h1.4v12.6h-1.4v-12.6Z"/>
      <path class="st4" d="M89.8,229.1h-1.4v-7.3h-1.5v-1.1h1.5v-1.9c0-1.7,1-2.3,2.6-2.3s.6,0,.9.1v1.2c-.2,0-.4-.1-.8-.1-.8,0-1.2.3-1.2,1.3v1.7h2v1.1h-2v7.3h0Z"/>
      <path class="st4" d="M93,224.8c0-2.6,1.4-4.4,3.8-4.4s3.8,1.8,3.8,4.4-1.4,4.4-3.8,4.4c-2.5.1-3.8-1.7-3.8-4.4ZM94.5,224.8c0,2.1.7,3.3,2.3,3.3s2.3-1.2,2.3-3.3-.7-3.3-2.3-3.3-2.3,1.3-2.3,3.3Z"/>
      <path class="st4" d="M108.3,223.8c0-.6,0-1.3-.3-1.7s-.8-.6-1.3-.6c-1.6,0-2.3,1-2.3,2.4v5.1h-1.4v-8.4h1.4v1.4h0c.4-.9,1.4-1.6,2.7-1.6s2.7.8,2.7,2.8v5.9h-1.4v-5.3h0Z"/>
      <path class="st4" d="M114.6,218.2v2.4h2.1v1.1h-2.1v5c0,.9.4,1.2,1.3,1.2s.9-.1.9-.1v1.2s-.6.1-1.3.1c-1.7,0-2.3-.8-2.3-2.2v-5.2h-1.5v-1.1h.3c1.1,0,1.4-.3,1.4-1.9v-.6c0,.1,1.2.1,1.2.1Z"/>
      <path class="st4" d="M123.1,222.7c0-.8-.7-1.2-1.7-1.2s-1.6.6-1.6,1.4.4,1,1.3,1.1l1.3.2c1.8.3,2.4,1,2.4,2.4s-1.4,2.6-3.3,2.6-3.2-.8-3.3-2.6h1.4c0,.7.4,1.5,1.9,1.5s1.9-.5,1.9-1.4-.2-1-1.3-1.2l-1.3-.2c-1.5-.2-2.3-.9-2.3-2.3s1.1-2.6,3.1-2.6,2.9.9,3,2.3h-1.5Z"/>
      <path class="st4" d="M133,225.8c0,.6,0,1.3.3,1.7s.7.6,1.3.6c1.6,0,2.3-1,2.3-2.9v-4.6h1.4v8.4h-1.3v-1.4h0c-.4.9-1.3,1.7-2.7,1.7s-2.7-.8-2.7-2.8v-5.9h1.4v5.2h0Z"/>
      <path class="st4" d="M145.7,222.7c-.1-.8-.7-1.2-1.7-1.2s-1.6.6-1.6,1.4.4,1,1.3,1.1l1.3.2c1.8.3,2.4,1,2.4,2.4s-1.4,2.6-3.3,2.6-3.2-.8-3.3-2.6h1.4c.1.7.4,1.5,1.9,1.5s1.9-.5,1.9-1.4-.2-1-1.3-1.2l-1.3-.2c-1.5-.2-2.3-.9-2.3-2.3s1.1-2.6,3.1-2.6,2.9.9,3,2.3h-1.5Z"/>
      <path class="st4" d="M152.9,229.3c-2.6,0-3.8-1.9-3.8-4.4s1.3-4.5,3.8-4.5,3.5,1.9,3.5,4.1v.7h-5.8c.1,1.7.8,2.9,2.4,2.9s1.8-.8,1.9-1.3h1.4c-.4,1.5-1.6,2.5-3.4,2.5ZM154.9,224c0-1.4-.6-2.5-2.1-2.5s-2.1,1.1-2.3,2.6h4.4Z"/>
      <path class="st4" d="M165.6,229.1h-1.4v-1.4h-.1c-.4.8-1.4,1.6-2.7,1.6s-3.4-1.1-3.4-4.4,1.5-4.5,3.6-4.5,2.1.7,2.4,1.5h0v-5.5h1.4l.2,12.7h0ZM164.2,224.5c0-1.8-.9-2.9-2.3-2.9s-2.4,1.3-2.4,3.3.6,3.3,2.2,3.3,2.4-1.2,2.4-2.7v-1h.1Z"/>
      <path class="st4" d="M173.3,217.1h1.5v1.6h-1.5v-1.6ZM173.3,220.6h1.5v8.4h-1.5v-8.4Z"/>
      <path class="st4" d="M183.3,223.8c0-.6,0-1.3-.3-1.7s-.8-.6-1.3-.6c-1.6,0-2.3,1-2.3,2.4v5.1h-1.4v-8.4h1.4v1.4h0c.4-.9,1.4-1.6,2.7-1.6s2.7.8,2.7,2.8v5.9h-1.4v-5.3h0Z"/>
      <path class="st4" d="M191.4,220.6h1.4l1.8,5.3c.3.8.4,1.3.4,1.3h.1s.1-.5.4-1.3l1.7-5.3h1.4l-3.1,9c-.7,1.9-1.2,2.7-3.1,2.7s-.6-.1-.9-.1v-1.2c.3.1.6.1.7.1,1.1,0,1.4-.4,1.8-1.5l.2-.4-2.8-8.6Z"/>
      <path class="st4" d="M200,224.8c0-2.6,1.4-4.4,3.8-4.4s3.8,1.8,3.8,4.4-1.4,4.4-3.8,4.4c-2.5.1-3.8-1.7-3.8-4.4ZM201.5,224.8c0,2.1.7,3.3,2.3,3.3s2.3-1.2,2.3-3.3-.7-3.3-2.3-3.3-2.3,1.3-2.3,3.3Z"/>
      <path class="st4" d="M211.3,225.8c0,.6,0,1.3.3,1.7s.7.6,1.3.6c1.6,0,2.3-1,2.3-2.9v-4.6h1.4v8.4h-1.4v-1.4h0c-.4.9-1.3,1.7-2.7,1.7s-2.7-.8-2.7-2.8v-5.9h1.4v5.2h0Z"/>
      <path class="st4" d="M219.8,220.6h1.4v1.6h0c.4-.9,1.4-1.8,2.7-1.8h.1v1.5h-.3c-1.5,0-2.5.9-2.5,2.5v4.6h-1.4v-8.4h0Z"/>
      <path class="st4" d="M237.5,229.1h-1.4v-1.4h-.1c-.4.8-1.4,1.6-2.7,1.6s-3.4-1.1-3.4-4.4,1.5-4.5,3.6-4.5,2.1.7,2.4,1.5h0v-5.5h1.4l.2,12.7h0ZM236.1,224.5c0-1.8-.9-2.9-2.3-2.9s-2.4,1.3-2.4,3.3.6,3.3,2.2,3.3,2.4-1.2,2.4-2.7v-1h.1Z"/>
      <path class="st4" d="M243.8,229.3c-2.6,0-3.8-1.9-3.8-4.4s1.3-4.5,3.8-4.5,3.5,1.9,3.5,4.1v.7h-5.8c.1,1.7.8,2.9,2.4,2.9s1.8-.8,1.9-1.3h1.4c-.4,1.5-1.6,2.5-3.4,2.5ZM245.8,224c0-1.4-.6-2.5-2.1-2.5s-2.1,1.1-2.3,2.6h4.4Z"/>
      <path class="st4" d="M253.8,222.7c-.1-.8-.7-1.2-1.7-1.2s-1.6.6-1.6,1.4.4,1,1.3,1.1l1.3.2c1.8.3,2.4,1,2.4,2.4s-1.4,2.6-3.3,2.6-3.2-.8-3.3-2.6h1.4c.1.7.4,1.5,1.9,1.5s1.9-.5,1.9-1.4-.2-1-1.3-1.2l-1.3-.2c-1.5-.2-2.3-.9-2.3-2.3s1.1-2.6,3.1-2.6,2.9.9,3,2.3h-1.5Z"/>
      <path class="st4" d="M257.9,217.1h1.5v1.6h-1.5v-1.6ZM258,220.6h1.5v8.4h-1.5v-8.4Z"/>
      <path class="st4" d="M262,229.9h1.4c.2.7.7,1.2,2.1,1.2s2.4-.6,2.4-2.4v-1.2h0c-.4.8-1.4,1.6-2.7,1.6s-3.4-1.1-3.4-4.2,1.5-4.3,3.5-4.3,2.2.8,2.5,1.5h0v-1.3h1.4v8.2c0,2.4-1.5,3.4-3.8,3.4-1.5-.2-3.2-.8-3.4-2.5ZM267.9,224.4c0-1.7-.9-2.8-2.4-2.8s-2.2,1.3-2.2,3.2.5,3.1,2.3,3.1,2.3-1.2,2.3-2.6v-.9h0Z"/>
      <path class="st4" d="M277.8,223.8c0-.6,0-1.3-.3-1.7s-.8-.6-1.3-.6c-1.6,0-2.3,1-2.3,2.4v5.1h-1.4v-8.4h1.4v1.4h0c.4-.9,1.4-1.6,2.7-1.6s2.7.8,2.7,2.8v5.9h-1.4v-5.3h-.1Z"/>
      <path class="st4" d="M281.8,227.1h2v1.9h-2v-1.9Z"/>
      <path class="st4" d="M-8,253.2H-3.6v1.3h-4.4v-1.3Z"/>
      <path class="st4" d="M3.7,246.8h7.8v1.3h-6.3v4.1h5.8v1.3h-5.8v4.2h6.4v1.3H3.7v-12.2Z"/>
      <path class="st4" d="M16.2,254.7l-2.7-4.1h1.7l1.8,2.9h0l1.9-2.9h1.6l-2.7,4,2.9,4.4h-1.7l-2.1-3.3h0l-2.1,3.3h-1.6l3-4.3Z"/>
      <path class="st4" d="M22.7,250.6h1.4v1.4h0c.5-.9,1.4-1.6,2.7-1.6s3.4,1.1,3.4,4.3-1.6,4.6-3.5,4.6-2.2-.7-2.5-1.4h0v4.2h-1.4c-.1,0-.1-11.5-.1-11.5ZM26.6,258.1c1.5,0,2.2-1.2,2.2-3.4s-.5-3.1-2.3-3.1-2.4,1.3-2.4,2.7v.9c0,1.6.9,2.9,2.5,2.9Z"/>
      <path class="st4" d="M32.1,254.8c0-2.6,1.4-4.4,3.8-4.4s3.8,1.8,3.8,4.4-1.4,4.4-3.8,4.4c-2.5,0-3.8-1.7-3.8-4.4ZM33.6,254.8c0,2.1.7,3.3,2.3,3.3s2.3-1.2,2.3-3.3-.7-3.3-2.3-3.3-2.3,1.3-2.3,3.3Z"/>
      <path class="st4" d="M42.1,250.6h1.4v1.6h0c.4-.9,1.4-1.8,2.7-1.8h0v1.5h-.3c-1.5,0-2.5.9-2.5,2.5v4.6h-1.4v-8.4Z"/>
      <path class="st4" d="M50.5,248.2v2.4h2.1v1.1h-2.1v5c0,.9.4,1.2,1.3,1.2s.9-.1.9-.1v1.2s-.6.1-1.3.1c-1.7,0-2.3-.8-2.3-2.2v-5.2h-1.5v-1.1h.3c1.1,0,1.4-.3,1.4-1.9v-.6h1.2Z"/>
      <path class="st4" d="M58.9,252.9c0-1.5,1.2-2.5,3.2-2.5s3.1.9,3.1,3.1v3.4c0,.7,0,.9.8,1v1.2h-.2c-1.3,0-1.8-.5-1.9-1.5h0c-.4,1-1.5,1.6-2.7,1.6-1.7,0-2.7-.9-2.7-2.4s.4-1.7,1.3-2.1c.9-.5,2.2-.6,4.1-.7v-.4c0-1.5-.6-2.1-1.8-2.1s-1.7.7-1.8,1.4h-1.4ZM63.8,255.2v-.2c-1.8.1-2.9.2-3.4.6-.3.2-.5.6-.5,1,0,.9.6,1.3,1.5,1.3,1.1.1,2.4-.6,2.4-2.7Z"/>
      <path class="st4" d="M73.6,253.8c0-.6,0-1.3-.3-1.7s-.8-.6-1.3-.6c-1.6,0-2.3,1-2.3,2.4v5.1h-1.4v-8.4h1.4v1.4h0c.4-.9,1.4-1.6,2.7-1.6s2.7.8,2.7,2.8v5.9h-1.4v-5.3h0Z"/>
      <path class="st4" d="M84.9,259.1h-1.4v-1.4h0c-.4.8-1.4,1.6-2.7,1.6s-3.4-1.1-3.4-4.4,1.5-4.5,3.6-4.5,2.1.7,2.4,1.5h0v-5.5h1.4l.2,12.7h0ZM83.5,254.5c0-1.8-.9-2.9-2.3-2.9s-2.3,1.3-2.3,3.3.6,3.3,2.2,3.3,2.4-1.2,2.4-2.7c0,0,0-1,0-1Z"/>
      <path class="st4" d="M96.7,252.7c0-.8-.7-1.2-1.7-1.2s-1.7.6-1.7,1.4.4,1,1.3,1.2l1.3.2c1.8.3,2.4,1,2.4,2.4s-1.4,2.6-3.3,2.6-3.2-.8-3.3-2.6h1.4c0,.7.4,1.5,1.9,1.5s1.9-.5,1.9-1.4-.2-1-1.3-1.2l-1.3-.2c-1.5-.2-2.3-.9-2.3-2.3s1.1-2.6,3.1-2.6,2.9.8,3,2.3h-1.4Z"/>
      <path class="st4" d="M102.1,255.8c0,.6,0,1.3.3,1.7s.7.6,1.3.6c1.6,0,2.3-1,2.3-2.9v-4.6h1.4v8.4h-1.4v-1.4h0c-.4.9-1.3,1.7-2.7,1.7s-2.7-.8-2.7-2.8v-5.9h1.4v5.2h0Z"/>
      <path class="st4" d="M110.6,246.4h1.4v5.6h0c.5-.9,1.4-1.6,2.7-1.6s3.4,1.1,3.4,4.3-1.6,4.6-3.5,4.6-2.2-.7-2.6-1.6h0v1.3h-1.4v-12.6h0ZM116.6,254.7c0-1.8-.5-3.2-2.3-3.2s-2.4,1.3-2.4,2.7v.9c0,1.7.8,3,2.4,3,1.6,0,2.3-1.2,2.3-3.4Z"/>
      <path class="st4" d="M120.5,250.6h1.4v1.4h0c.4-.9,1.4-1.6,2.7-1.6s2.2.6,2.5,1.8h0c.3-.9,1.4-1.8,2.8-1.8s2.7.8,2.7,2.8v5.9h-1.4v-5.2c0-.6,0-1.3-.3-1.7s-.8-.5-1.3-.5c-1.6,0-2.3,1-2.3,2.4v5.1h-1.4v-5.2c0-.6,0-1.2-.3-1.7-.3-.4-.8-.6-1.3-.6-1.6,0-2.3,1-2.3,2.3v5.1h-1.4v-8.5h0Z"/>
      <path class="st4" d="M135.7,247.1h1.5v1.6h-1.5v-1.6ZM135.7,250.6h1.5v8.4h-1.5v-8.4Z"/>
      <path class="st4" d="M142.1,248.2v2.4h2.1v1.1h-2.1v5c0,.9.4,1.2,1.3,1.2s.9-.1.9-.1v1.2s-.6.1-1.3.1c-1.6,0-2.3-.8-2.3-2.2v-5.2h-1.5v-1.1h.3c1.1,0,1.4-.3,1.4-1.9v-.6h1.2Z"/>
      <path class="st4" d="M150.8,246.4h1.4v12.6h-1.4v-12.6Z"/>
      <path class="st4" d="M154.6,254.8c0-2.6,1.4-4.4,3.8-4.4s3.8,1.8,3.8,4.4-1.4,4.4-3.8,4.4c-2.5,0-3.8-1.7-3.8-4.4ZM156.1,254.8c0,2.1.7,3.3,2.3,3.3s2.3-1.2,2.3-3.3-.7-3.3-2.3-3.3-2.3,1.3-2.3,3.3Z"/>
      <path class="st4" d="M164.2,259.9h1.4c.2.7.7,1.2,2.1,1.2s2.4-.6,2.4-2.5v-1.2h0c-.4.8-1.4,1.6-2.7,1.6s-3.4-1.1-3.4-4.2,1.5-4.3,3.6-4.3,2.2.8,2.5,1.5h0v-1.3h1.4v8.2c0,2.4-1.6,3.4-3.8,3.4-1.6,0-3.3-.7-3.5-2.4ZM170.1,254.4c0-1.7-.9-2.8-2.4-2.8s-2.2,1.3-2.2,3.2.5,3.1,2.3,3.1,2.3-1.2,2.3-2.6v-.9h0Z"/>
      <path class="st4" d="M173.9,254.8c0-2.6,1.4-4.4,3.8-4.4s3.8,1.8,3.8,4.4-1.4,4.4-3.8,4.4c-2.5,0-3.8-1.7-3.8-4.4ZM175.4,254.8c0,2.1.7,3.3,2.3,3.3s2.3-1.2,2.3-3.3-.7-3.3-2.3-3.3-2.3,1.3-2.3,3.3Z"/>
      <path class="st4" d="M188.1,252.7c-.1-.8-.7-1.2-1.7-1.2s-1.6.6-1.6,1.4.4,1,1.3,1.2l1.3.2c1.8.3,2.4,1,2.4,2.4s-1.4,2.6-3.3,2.6-3.2-.8-3.3-2.6h1.4c.1.7.4,1.5,1.9,1.5s1.9-.5,1.9-1.4-.2-1-1.3-1.2l-1.3-.2c-1.5-.2-2.3-.9-2.3-2.3s1.1-2.6,3.1-2.6,2.9.8,3,2.3h-1.5Z"/>
      <path class="st4" d="M196.4,252.9c0-1.5,1.2-2.5,3.2-2.5s3.1.9,3.1,3.1v3.4c0,.7.1.9.8,1v1.2h-.2c-1.3,0-1.8-.5-1.9-1.5h0c-.4,1-1.5,1.6-2.7,1.6-1.7,0-2.7-.9-2.7-2.4s.4-1.7,1.3-2.1c.9-.5,2.2-.6,4.1-.7v-.4c0-1.5-.6-2.1-1.8-2.1s-1.7.7-1.8,1.4h-1.4ZM201.3,255.2v-.2c-1.8.1-2.9.2-3.4.6-.3.2-.5.6-.5,1,0,.9.6,1.3,1.5,1.3,1.1.1,2.4-.6,2.4-2.7Z"/>
      <path class="st4" d="M207.5,248.2v2.4h2.1v1.1h-2.1v5c0,.9.4,1.2,1.3,1.2s.9-.1.9-.1v1.2s-.6.1-1.3.1c-1.6,0-2.3-.8-2.3-2.2v-5.2h-1.5v-1.1h.3c1.1,0,1.4-.3,1.4-1.9v-.6h1.2Z"/>
      <path class="st4" d="M218,250.3h-2.4v-1h.4c.8,0,1.4-.2,1.7-.6.4-.4.5-.8.5-1.6h1.2v11.9h-1.4v-8.7h0Z"/>
      <path class="st4" d="M227,247c2.6,0,4.3,2,4.3,6.2s-1.7,6.1-4.3,6.1-4.2-2-4.2-6.1c-.1-4.2,1.6-6.2,4.2-6.2ZM229.7,253.2c0-3.3-1-5-2.7-5s-2.7,1.6-2.7,5,1,4.9,2.7,4.9,2.7-1.7,2.7-4.9Z"/>
      <path class="st4" d="M237.9,247c2.6,0,4.3,2,4.3,6.2s-1.7,6.1-4.3,6.1-4.2-2-4.2-6.1,1.7-6.2,4.2-6.2ZM240.6,253.2c0-3.3-1-5-2.7-5s-2.7,1.6-2.7,5,1,4.9,2.7,4.9,2.7-1.7,2.7-4.9Z"/>
      <path class="st4" d="M248.9,247c2.6,0,4.3,2,4.3,6.2s-1.7,6.1-4.3,6.1-4.2-2-4.2-6.1c0-4.2,1.6-6.2,4.2-6.2ZM251.6,253.2c0-3.3-1-5-2.7-5s-2.7,1.6-2.7,5,1,4.9,2.7,4.9,2.7-1.7,2.7-4.9Z"/>
      <path class="st4" d="M255.9,250.6h1.4v1.4h0c.5-.9,1.4-1.6,2.7-1.6s3.4,1.1,3.4,4.3-1.6,4.6-3.5,4.6-2.2-.7-2.5-1.4h0v4.2h-1.4v-11.5h-.1ZM259.7,258.1c1.5,0,2.2-1.2,2.2-3.4s-.5-3.1-2.3-3.1-2.4,1.3-2.4,2.7v.9c0,1.6.9,2.9,2.5,2.9Z"/>
      <path class="st4" d="M267.4,254.7l-2.7-4.1h1.7l1.8,2.9h0l1.9-2.9h1.6l-2.7,4,2.9,4.4h-1.7l-2.1-3.3h0l-2.1,3.3h-1.6l3-4.3Z"/>
      <path class="st4" d="M282.6,252.7c-.1-.8-.7-1.2-1.7-1.2s-1.6.6-1.6,1.4.4,1,1.3,1.2l1.3.2c1.8.3,2.4,1,2.4,2.4s-1.4,2.6-3.3,2.6-3.2-.8-3.3-2.6h1.4c.1.7.4,1.5,1.9,1.5s1.9-.5,1.9-1.4-.2-1-1.3-1.2l-1.3-.2c-1.5-.2-2.3-.9-2.3-2.3s1.1-2.6,3.1-2.6,2.9.8,3,2.3h-1.5Z"/>
      <path class="st4" d="M293.5,262.1h-1.4v-4.3h0c-.4.8-1.3,1.5-2.6,1.5s-3.4-1.1-3.4-4.4,1.5-4.5,3.6-4.5,2.1.7,2.5,1.5h0v-1.3h1.4v11.5h-.1ZM292.1,255.4v-.9c0-1.8-.9-2.9-2.3-2.9s-2.4,1.3-2.4,3.3.6,3.3,2.2,3.3c1.6-.1,2.5-1.3,2.5-2.8Z"/>
      <path class="st4" d="M298,255.8c0,.6,0,1.3.3,1.7s.7.6,1.3.6c1.6,0,2.3-1,2.3-2.9v-4.6h1.4v8.4h-1.3v-1.4h0c-.4.9-1.3,1.7-2.7,1.7s-2.7-.8-2.7-2.8v-5.9h1.4v5.2h0Z"/>
      <path class="st4" d="M306.1,252.9c0-1.5,1.2-2.5,3.2-2.5s3.1.9,3.1,3.1v3.4c0,.7.1.9.8,1v1.2h-.2c-1.3,0-1.8-.5-1.9-1.5h0c-.5,1-1.5,1.6-2.7,1.6-1.7,0-2.7-.9-2.7-2.4s.4-1.7,1.3-2.1c.9-.5,2.2-.6,4.1-.7v-.4c0-1.5-.6-2.1-1.8-2.1s-1.7.7-1.8,1.4h-1.4ZM311,255.2v-.2c-1.8.1-2.9.2-3.4.6-.3.2-.5.6-.5,1,0,.9.6,1.3,1.5,1.3,1.1.1,2.4-.6,2.4-2.7Z"/>
      <path class="st4" d="M315.4,250.6h1.4v1.6h0c.4-.9,1.4-1.8,2.7-1.8h.1v1.5h-.3c-1.5,0-2.5.9-2.5,2.5v4.6h-1.4v-8.4h0Z"/>
      <path class="st4" d="M324.8,259.3c-2.6,0-3.8-1.9-3.8-4.4s1.3-4.5,3.8-4.5,3.5,1.9,3.5,4.1v.7h-5.8c.1,1.7.8,2.9,2.4,2.9s1.8-.8,1.9-1.3h1.4c-.4,1.5-1.6,2.5-3.4,2.5ZM326.8,254c0-1.4-.6-2.5-2.1-2.5s-2.1,1.1-2.3,2.6h4.4Z"/>
      <path class="st4" d="M336.9,248.2v2.4h2.1v1.1h-2.1v5c0,.9.4,1.2,1.3,1.2s.9-.1.9-.1v1.2s-.6.1-1.3.1c-1.6,0-2.3-.8-2.3-2.2v-5.2h-1.5v-1.1h.3c1.1,0,1.4-.3,1.4-1.9v-.6h1.2Z"/>
      <path class="st4" d="M340.5,254.8c0-2.6,1.4-4.4,3.8-4.4s3.8,1.8,3.8,4.4-1.4,4.4-3.8,4.4c-2.5,0-3.8-1.7-3.8-4.4ZM342,254.8c0,2.1.7,3.3,2.3,3.3s2.3-1.2,2.3-3.3-.7-3.3-2.3-3.3-2.3,1.3-2.3,3.3Z"/>
      <path class="st4" d="M350.2,250.6h2v2h-2v-2ZM350.2,259.1v-2h2v2h-2Z"/>
      <path class="st4" d="M10,283.2h4.4v1.3h-4.4v-1.3Z"/>
      <path class="st4" d="M20.5,289.1v-1.3h.3c2.6,0,3-.7,3-2.5v-8.6h1.5v8.7c0,2.6-1.4,3.6-4.1,3.6h-.7Z"/>
      <path class="st4" d="M30.2,284.4v4.7h-1.5v-12.2h3.7c2.4,0,4.2,1.1,4.2,3.8s-1.8,3.8-4.3,3.8h-2.1ZM32.3,283.2c1.8,0,2.8-.9,2.8-2.6s-1-2.6-2.8-2.6h-2.1v5.2h2.1Z"/>
      <path class="st4" d="M40.1,283c0,3.2,1.4,5.1,3.9,5.1s3.7-1.3,3.7-3.7v-.2h-3.5v-1.3h5v6.2h-1.3v-1.8h0c-.6,1.1-1.8,2-3.8,2-3.1,0-5.4-2-5.4-6.3s2.4-6.4,5.6-6.4,4.3,1.3,4.6,3.4h-1.6c-.2-1.4-1.5-2.2-3.1-2.2-2.7,0-4,2.1-4,5.2Z"/>
      <path class="st4" d="M52.2,287.1h1.8l-1.3,3.8h-1l.5-3.8Z"/>
      <path class="st4" d="M62.3,284.4v4.7h-1.5v-12.2h3.7c2.4,0,4.2,1.1,4.2,3.8s-1.8,3.8-4.3,3.8h-2.1ZM64.4,283.2c1.8,0,2.8-.9,2.8-2.6s-1-2.6-2.8-2.6h-2.1v5.2h2.1Z"/>
      <path class="st4" d="M71.2,276.8h1.9l5.4,9.1c.4.7.6,1.2.6,1.2h0v-10.3h1.4v12.2h-1.9l-5.4-9.1c-.5-.8-.6-1.2-.6-1.2h0v10.3h-1.4c0,.1,0-12.2,0-12.2Z"/>
      <path class="st4" d="M85.1,283c0,3.2,1.4,5.1,3.9,5.1s3.7-1.3,3.7-3.7v-.2h-3.5v-1.3h5v6.2h-1.3v-1.8h0c-.6,1.1-1.8,2-3.8,2-3.1,0-5.4-2-5.4-6.3s2.4-6.4,5.6-6.4,4.3,1.3,4.6,3.4h-1.6c-.2-1.4-1.5-2.2-3.1-2.2-2.6,0-4,2.1-4,5.2Z"/>
      <path class="st4" d="M97.1,280.6h2v2h-2v-2ZM97.1,289.1v-2h2v2h-2Z"/>
      <path class="st4" d="M110.3,282.7c0-.8-.7-1.2-1.7-1.2s-1.7.6-1.7,1.4.4,1,1.3,1.1l1.3.2c1.8.3,2.4,1,2.4,2.4s-1.4,2.6-3.3,2.6-3.2-.8-3.3-2.6h1.4c0,.7.4,1.5,1.9,1.5s1.9-.5,1.9-1.4-.2-1-1.3-1.2l-1.3-.2c-1.5-.2-2.3-.9-2.3-2.3s1.1-2.6,3.1-2.6,2.9.9,3,2.3h-1.4Z"/>
      <path class="st4" d="M117.5,289.3c-2.6,0-3.8-1.9-3.8-4.4s1.3-4.5,3.8-4.5,3.5,1.9,3.5,4.1v.7h-5.8c0,1.7.8,2.9,2.4,2.9s1.8-.8,1.9-1.3h1.4c-.3,1.5-1.6,2.5-3.4,2.5ZM119.5,284c0-1.4-.6-2.5-2.1-2.5s-2.1,1.1-2.3,2.6h4.4Z"/>
      <path class="st4" d="M125.2,278.2v2.4h2.1v1.1h-2.1v5c0,.9.4,1.2,1.3,1.2s.9-.1.9-.1v1.2s-.6.1-1.3.1c-1.6,0-2.3-.8-2.3-2.2v-5.2h-1.5v-1.1h.3c1.1,0,1.4-.3,1.4-1.9v-.6h1.2Z"/>
      <path class="st4" d="M135.7,278.2v2.4h2.1v1.1h-2.1v5c0,.9.4,1.2,1.3,1.2s.9-.1.9-.1v1.2s-.6.1-1.3.1c-1.6,0-2.3-.8-2.3-2.2v-5.2h-1.5v-1.1h.3c1.1,0,1.4-.3,1.4-1.9v-.6h1.2Z"/>
      <path class="st4" d="M139.3,284.8c0-2.6,1.4-4.4,3.8-4.4s3.8,1.8,3.8,4.4-1.4,4.4-3.8,4.4c-2.5.1-3.8-1.7-3.8-4.4ZM140.8,284.8c0,2.1.7,3.3,2.3,3.3s2.3-1.2,2.3-3.3-.7-3.3-2.3-3.3-2.3,1.3-2.3,3.3Z"/>
      <path class="st4" d="M153.8,280.6h1.4v1.4h0c.4-.9,1.4-1.6,2.7-1.6s2.2.6,2.5,1.8h0c.3-.9,1.4-1.8,2.8-1.8s2.7.8,2.7,2.8v5.9h-1.4v-5.2c0-.6,0-1.3-.3-1.7-.3-.4-.8-.5-1.3-.5-1.6,0-2.3,1-2.3,2.4v5.1h-1.4v-5.2c0-.6,0-1.2-.3-1.7-.3-.4-.8-.6-1.3-.6-1.6,0-2.3,1-2.3,2.4v5.1h-1.4v-8.6h0Z"/>
      <path class="st4" d="M168.6,282.9c0-1.5,1.2-2.5,3.2-2.5s3.1.9,3.1,3.1v3.4c0,.7.1.9.8,1v1.2h-.2c-1.3,0-1.8-.5-1.9-1.5h0c-.4,1-1.5,1.6-2.7,1.6-1.7,0-2.7-.9-2.7-2.4s.4-1.7,1.3-2.1c.9-.5,2.2-.6,4.1-.7v-.4c0-1.5-.6-2.1-1.8-2.1s-1.7.7-1.8,1.4h-1.4ZM173.5,285.2v-.2c-1.8.1-2.9.2-3.4.6-.3.2-.5.6-.5,1,0,.9.6,1.3,1.5,1.3,1.1.1,2.4-.6,2.4-2.7Z"/>
      <path class="st4" d="M179.7,284.7l-2.7-4.1h1.7l1.8,3h0l1.9-3h1.6l-2.7,4,2.9,4.4h-1.7l-2.1-3.3h-.1l-2.1,3.3h-1.6l3.1-4.3Z"/>
      <path class="st4" d="M186.2,277.1h1.5v1.5h-1.5v-1.5ZM186.2,280.6h1.5v8.4h-1.5v-8.4Z"/>
      <path class="st4" d="M190.9,280.6h1.4v1.4h0c.4-.9,1.4-1.6,2.7-1.6s2.2.6,2.5,1.8h0c.3-.9,1.4-1.8,2.8-1.8s2.7.8,2.7,2.8v5.9h-1.4v-5.2c0-.6,0-1.3-.3-1.7-.3-.4-.8-.5-1.3-.5-1.6,0-2.3,1-2.3,2.4v5.1h-1.4v-5.2c0-.6,0-1.2-.3-1.7-.3-.4-.8-.6-1.3-.6-1.6,0-2.3,1-2.3,2.4v5.1h-1.4v-8.6h0Z"/>
      <path class="st4" d="M207.4,285.8c0,.6,0,1.3.3,1.7.3.4.7.6,1.3.6,1.6,0,2.3-1,2.3-2.9v-4.6h1.4v8.4h-1.4v-1.4h0c-.4.9-1.3,1.7-2.7,1.7s-2.7-.8-2.7-2.8v-5.9h1.4v5.2h0Z"/>
      <path class="st4" d="M215.9,280.6h1.4v1.4h0c.4-.9,1.4-1.6,2.7-1.6s2.2.6,2.5,1.8h0c.3-.9,1.4-1.8,2.8-1.8s2.7.8,2.7,2.8v5.9h-1.4v-5.2c0-.6,0-1.3-.3-1.7-.3-.4-.8-.5-1.3-.5-1.6,0-2.3,1-2.3,2.4v5.1h-1.4v-5.2c0-.6,0-1.2-.3-1.7-.3-.4-.8-.6-1.3-.6-1.6,0-2.3,1-2.3,2.4v5.1h-1.4v-8.6h0Z"/>
      <path class="st4" d="M242.4,292.1h-1.4v-4.3h-.1c-.4.8-1.3,1.5-2.6,1.5s-3.4-1.1-3.4-4.4,1.5-4.5,3.6-4.5,2.1.7,2.4,1.5h0v-1.3h1.4v11.5h.1ZM241,285.4v-.9c0-1.8-.9-3-2.3-3s-2.4,1.3-2.4,3.3.6,3.3,2.2,3.3c1.6,0,2.5-1.2,2.5-2.7Z"/>
      <path class="st4" d="M246.9,285.8c0,.6,0,1.3.3,1.7.3.4.7.6,1.3.6,1.6,0,2.3-1,2.3-2.9v-4.6h1.4v8.4h-1.4v-1.4h0c-.4.9-1.3,1.7-2.7,1.7s-2.7-.8-2.7-2.8v-5.9h1.4v5.2h0Z"/>
      <path class="st4" d="M255,282.9c0-1.5,1.2-2.5,3.2-2.5s3.1.9,3.1,3.1v3.4c0,.7.1.9.8,1v1.2h-.2c-1.3,0-1.8-.5-1.9-1.5h0c-.5,1-1.5,1.6-2.7,1.6-1.7,0-2.7-.9-2.7-2.4s.4-1.7,1.3-2.1c.9-.5,2.2-.6,4.1-.7v-.4c0-1.5-.6-2.1-1.8-2.1s-1.7.7-1.8,1.4h-1.4ZM259.9,285.2v-.2c-1.8.1-2.9.2-3.4.6-.3.2-.5.6-.5,1,0,.9.6,1.3,1.5,1.3,1,.1,2.4-.6,2.4-2.7Z"/>
      <path class="st4" d="M264.3,276.4h1.4v12.6h-1.4v-12.6Z"/>
      <path class="st4" d="M268.9,277.1h1.5v1.5h-1.5v-1.5ZM268.9,280.6h1.5v8.4h-1.5v-8.4Z"/>
      <path class="st4" d="M275.3,278.2v2.4h2.1v1.1h-2.1v5c0,.9.4,1.2,1.3,1.2s.9-.1.9-.1v1.2s-.6.1-1.3.1c-1.6,0-2.3-.8-2.3-2.2v-5.2h-1.5v-1.1h.3c1.1,0,1.4-.3,1.4-1.9v-.6h1.2Z"/>
      <path class="st4" d="M278.8,280.6h1.4l1.8,5.3c.3.8.4,1.3.4,1.3h0s.1-.5.4-1.3l1.7-5.3h1.4l-3.1,9c-.7,1.9-1.2,2.7-3.1,2.7s-.6,0-.9-.1v-1.2c.3.1.6.1.7.1,1.1,0,1.4-.4,1.8-1.5l.2-.4-2.7-8.6Z"/>
      <path class="st4" d="M286.6,287.1h2v2h-2v-2Z"/>
      <path class="st4" d="M10,313.2h4.4v1.3h-4.4v-1.3Z"/>
      <path class="st4" d="M23.3,314.4v4.7h-1.5v-12.2h3.7c2.4,0,4.2,1.1,4.2,3.8s-1.8,3.8-4.3,3.8h-2.1ZM25.3,313.2c1.8,0,2.8-.9,2.8-2.6s-1-2.6-2.8-2.6h-2.1v5.2h2.1Z"/>
      <path class="st4" d="M32.2,306.8h3.8c3.3,0,5.9,1.6,5.9,6s-2.4,6.3-5.8,6.3h-3.9v-12.3h0ZM35.9,317.8c2.6,0,4.4-1.3,4.4-5s-1.8-4.7-4.3-4.7h-2.4v9.7h2.3Z"/>
      <path class="st4" d="M46.2,319.1h-1.5v-12.2h7.3v1.3h-5.8v4.4h5.3v1.3h-5.3v5.2h0Z"/>
      <path class="st4" d="M10,343.2h4.4v1.3h-4.4v-1.3Z"/>
      <path class="st4" d="M21.8,336.8h7.8v1.3h-6.3v4.1h5.8v1.3h-5.8v4.2h6.4v1.3h-7.9c0,.1,0-12.2,0-12.2Z"/>
      <path class="st4" d="M34.2,344.4v4.7h-1.5v-12.2h3.7c2.4,0,4.2,1.1,4.2,3.8s-1.8,3.8-4.3,3.8h-2.1ZM36.3,343.2c1.8,0,2.8-.9,2.8-2.6s-1-2.6-2.8-2.6h-2.1v5.2h2.1Z"/>
      <path class="st4" d="M49.7,340.1c0-1.2-.8-2.3-2.5-2.3s-2.6.9-2.6,2.1.6,1.8,2,2l1.7.3c2.4.4,3.2,1.6,3.2,3.4s-1.5,3.7-4.5,3.7-4.5-1.5-4.6-3.7h1.5c.2,1.3,1.1,2.5,3.1,2.5s2.9-1.1,2.9-2.4-.6-1.8-2.1-2.1l-1.7-.3c-2.4-.5-3.2-1.7-3.2-3.3s1.6-3.4,4.2-3.4,3.9,1.4,4,3.5h-1.4Z"/>
      <path class="st4" d="M54,340.6h2v2h-2v-2ZM54,349.1v-2h2v2h-2Z"/>
      <path class="st4" d="M66.1,349.3c-2.6,0-3.8-1.9-3.8-4.4s1.3-4.5,3.8-4.5,3.5,1.9,3.5,4.1v.7h-5.8c0,1.7.8,2.9,2.4,2.9s1.8-.8,1.9-1.3h1.4c-.3,1.5-1.6,2.5-3.4,2.5ZM68.1,344c0-1.4-.6-2.5-2.1-2.5s-2.1,1.1-2.3,2.6h4.4Z"/>
      <path class="st4" d="M73.6,344.7l-2.7-4.1h1.7l1.8,2.9h0l1.9-2.9h1.7l-2.7,4,2.9,4.4h-1.7l-2.1-3.3h0l-2.1,3.3h-1.6l3-4.3Z"/>
      <path class="st4" d="M80.2,340.6h1.4v1.4h0c.5-.9,1.4-1.6,2.7-1.6s3.4,1.1,3.4,4.3-1.6,4.5-3.5,4.5-2.2-.7-2.5-1.4h0v4.2h-1.4v-11.4h0ZM84,348.1c1.5,0,2.2-1.2,2.2-3.4s-.5-3.1-2.3-3.1-2.4,1.3-2.4,2.7v.9c0,1.6.9,2.9,2.5,2.9Z"/>
      <path class="st4" d="M89.5,344.8c0-2.6,1.4-4.4,3.8-4.4s3.8,1.8,3.8,4.4-1.4,4.4-3.8,4.4c-2.5.1-3.8-1.7-3.8-4.4ZM91,344.8c0,2.1.7,3.3,2.3,3.3s2.3-1.2,2.3-3.3-.7-3.3-2.3-3.3-2.3,1.3-2.3,3.3Z"/>
      <path class="st4" d="M99.5,340.6h1.4v1.6h0c.4-.9,1.4-1.8,2.7-1.8h0v1.5h-.3c-1.5,0-2.5.9-2.5,2.5v4.6h-1.4v-8.4h0Z"/>
      <path class="st4" d="M107.9,338.2v2.5h2.1v1.1h-2.1v5c0,.9.4,1.2,1.3,1.2s.9-.1.9-.1v1.2s-.6.1-1.3.1c-1.7,0-2.3-.8-2.3-2.2v-5.2h-1.5v-1.1h.3c1.1,0,1.4-.3,1.4-1.9v-.6h1.2Z"/>
      <path class="st4" d="M121,343.9h-2.7v5.2h-1.5v-12.2h4.4c.9,0,1.7.2,2.4.5,1,.5,1.6,1.5,1.6,2.9,0,2.3-1.5,3.1-2.6,3.4h0l2.7,5.4h-1.7l-2.6-5.2ZM121.1,342.6c1.4,0,2.5-.7,2.5-2.4s-1-2.2-2.4-2.2h-2.9v4.6h2.8Z"/>
      <path class="st4" d="M128.9,343c0,3.2,1.4,5.1,3.9,5.1s3.7-1.3,3.7-3.7v-.2h-3.5v-1.3h5v6.2h-1.3v-1.8h-.1c-.6,1.1-1.8,2-3.8,2-3.1,0-5.4-2-5.4-6.3s2.4-6.4,5.6-6.4,4.3,1.3,4.6,3.4h-1.6c-.2-1.4-1.5-2.2-3.1-2.2-2.6,0-4,2.1-4,5.2Z"/>
      <path class="st4" d="M141.3,349.1v-12.2h4.8c2.1,0,3.8,1,3.8,3s-.8,2.4-2.2,2.7h0c1.5.3,2.6,1.5,2.6,2.9,0,2.8-2.1,3.6-4.5,3.6h-4.5ZM145.9,342c1.3,0,2.5-.5,2.5-2s-.9-1.9-2.3-1.9h-3.2v4h3ZM145.8,347.9c1.8,0,3-.6,3-2.5s-1.1-2.2-3.1-2.2h-2.9v4.7h3Z"/>
      <path class="st4" d="M159.6,351.1c-.9-1.8-2.1-4.1-2.1-7.4s1.2-5.5,2.1-7.4h1.1c-.9,1.9-1.8,4.1-1.8,7.4s.8,5.4,1.8,7.4h-1.1Z"/>
      <path class="st4" d="M169.6,349.1h-1.4v-1.4h-.1c-.4.8-1.4,1.6-2.7,1.6s-3.4-1.1-3.4-4.4,1.5-4.5,3.6-4.5,2.1.7,2.4,1.5h0v-5.5h1.4l.2,12.7h0ZM168.2,344.5c0-1.8-.9-2.9-2.3-2.9s-2.4,1.3-2.4,3.3.6,3.3,2.2,3.3,2.4-1.2,2.4-2.7v-1h.1Z"/>
      <path class="st4" d="M172.7,337.1h1.5v1.5h-1.5v-1.5ZM172.7,340.6h1.5v8.4h-1.5v-8.4Z"/>
      <path class="st4" d="M176.8,349.9h1.4c.2.7.7,1.2,2.1,1.2s2.4-.6,2.4-2.5v-1.2h0c-.4.8-1.4,1.6-2.7,1.6s-3.4-1.1-3.4-4.2,1.5-4.3,3.6-4.3,2.2.8,2.5,1.5h0v-1.3h1.4v8.2c0,2.4-1.6,3.4-3.8,3.4-1.6-.1-3.3-.7-3.5-2.4ZM182.7,344.4c0-1.7-.9-2.8-2.4-2.8s-2.2,1.3-2.2,3.2.5,3.1,2.3,3.1,2.3-1.2,2.3-2.6v-.9h0Z"/>
      <path class="st4" d="M187.2,337.1h1.5v1.5h-1.5v-1.5ZM187.3,340.6h1.5v8.4h-1.5v-8.4Z"/>
      <path class="st4" d="M193.7,338.2v2.5h2.1v1.1h-2.1v5c0,.9.4,1.2,1.3,1.2s.9-.1.9-.1v1.2s-.6.1-1.3.1c-1.6,0-2.3-.8-2.3-2.2v-5.2h-1.5v-1.1h.3c1.1,0,1.4-.3,1.4-1.9v-.6h1.2Z"/>
      <path class="st4" d="M198.2,342.9c0-1.5,1.2-2.5,3.2-2.5s3.1.9,3.1,3.1v3.4c0,.7.1.9.8,1v1.2h-.2c-1.3,0-1.8-.5-1.9-1.5h0c-.4,1-1.5,1.6-2.7,1.6-1.7,0-2.7-.9-2.7-2.4s.4-1.7,1.3-2.1c.9-.5,2.2-.6,4.1-.7v-.4c0-1.5-.6-2.1-1.8-2.1s-1.7.7-1.8,1.4h-1.4ZM203.1,345.2v-.2c-1.8.1-2.9.2-3.4.6-.3.2-.5.6-.5,1,0,.9.6,1.3,1.5,1.3,1,.1,2.4-.6,2.4-2.7Z"/>
      <path class="st4" d="M207.5,336.4h1.4v12.6h-1.4v-12.6Z"/>
      <path class="st4" d="M212.9,343.8c0-3.3-.8-5.4-1.8-7.4h1.1c.9,1.8,2.1,4.1,2.1,7.4s-1.2,5.5-2.1,7.4h-1.1c1-2,1.8-4.2,1.8-7.4Z"/>
      <path class="st4" d="M221.8,342.9c0-1.5,1.2-2.5,3.2-2.5s3.1.9,3.1,3.1v3.4c0,.7.1.9.8,1v1.2h-.2c-1.3,0-1.8-.5-1.9-1.5h0c-.4,1-1.5,1.6-2.7,1.6-1.7,0-2.7-.9-2.7-2.4s.4-1.7,1.3-2.1c.9-.5,2.2-.6,4.1-.7v-.4c0-1.5-.6-2.1-1.8-2.1s-1.7.7-1.8,1.4h-1.4ZM226.7,345.2v-.2c-1.8.1-2.9.2-3.4.6-.3.2-.5.6-.5,1,0,.9.6,1.3,1.5,1.3,1,.1,2.4-.6,2.4-2.7Z"/>
      <path class="st4" d="M236.5,343.8c0-.6,0-1.3-.3-1.7-.3-.4-.8-.6-1.3-.6-1.6,0-2.3,1-2.3,2.4v5.1h-1.4v-8.4h1.4v1.4h0c.4-.9,1.4-1.6,2.7-1.6s2.7.8,2.7,2.8v5.9h-1.4v-5.3h0Z"/>
      <path class="st4" d="M247.8,349.1h-1.4v-1.4h-.1c-.4.8-1.4,1.6-2.7,1.6s-3.4-1.1-3.4-4.4,1.5-4.5,3.6-4.5,2.1.7,2.4,1.5h0v-5.5h1.4l.2,12.7h0ZM246.3,344.5c0-1.8-.9-2.9-2.3-2.9s-2.4,1.3-2.4,3.3.6,3.3,2.2,3.3,2.4-1.2,2.4-2.7v-1h.1Z"/>
      <path class="st4" d="M256.6,343c0,3.2,1.4,5.1,3.9,5.1s3.1-1.5,3.2-2.9h1.5c-.2,2.3-2,4.1-4.7,4.1s-5.4-2.1-5.4-6.3,2.3-6.3,5.5-6.3,4.4,1.1,4.7,3.8h-1.6c-.2-1.2-1.2-2.6-3.1-2.6-2.6-.1-4,2-4,5.1Z"/>
      <path class="st4" d="M268.1,336.8h2.3l3.1,8.8c.4,1.1.5,1.6.5,1.6h0s.2-.5.5-1.6l3.1-8.8h2.2v12.2h-1.5v-10.5h0s-.2.6-.7,1.9l-3.1,8.6h-1.4l-3-8.6c-.4-1.3-.7-1.9-.7-1.9h0v10.5h-1.4v-12.2h.1Z"/>
      <path class="st4" d="M286.3,343.8l-4.3-7h1.7l3.3,5.6h0l3.4-5.6h1.6l-4.3,6.9v5.3h-1.5v-5.2h0Z"/>
      <path class="st4" d="M295.5,349.1h-1.5v-12.2h1.5v6.3l5.7-6.3h1.8l-4.7,5.1,5,7.1h-1.8l-4.3-6-1.8,2v4h0Z"/>
      <path class="st4" d="M312.1,351.1c-.9-1.8-2.1-4.1-2.1-7.4s1.2-5.5,2.1-7.4h1.1c-.9,1.9-1.8,4.1-1.8,7.4s.8,5.4,1.8,7.4h-1.1Z"/>
      <path class="st4" d="M315.4,340.6h1.4v1.4h0c.5-.9,1.4-1.6,2.7-1.6s3.4,1.1,3.4,4.3-1.6,4.5-3.5,4.5-2.2-.7-2.5-1.4h0v4.2h-1.4v-11.4h-.1ZM319.3,348.1c1.5,0,2.2-1.2,2.2-3.4s-.5-3.1-2.3-3.1-2.4,1.3-2.4,2.7v.9c0,1.6.9,2.9,2.5,2.9Z"/>
      <path class="st4" d="M325.4,340.6h1.4v1.6h0c.4-.9,1.4-1.8,2.7-1.8h.1v1.5h-.3c-1.5,0-2.5.9-2.5,2.5v4.6h-1.4v-8.4h0Z"/>
      <path class="st4" d="M331.8,337.1h1.5v1.5h-1.5v-1.5ZM331.8,340.6h1.5v8.4h-1.5v-8.4Z"/>
      <path class="st4" d="M341.8,343.8c0-.6,0-1.3-.3-1.7-.3-.4-.8-.6-1.3-.6-1.6,0-2.3,1-2.3,2.4v5.1h-1.4v-8.4h1.4v1.4h0c.4-.9,1.4-1.6,2.7-1.6s2.7.8,2.7,2.8v5.9h-1.4v-5.3h-.1Z"/>
      <path class="st4" d="M348.1,338.2v2.5h2.1v1.1h-2.1v5c0,.9.4,1.2,1.3,1.2s.9-.1.9-.1v1.2s-.6.1-1.3.1c-1.6,0-2.3-.8-2.3-2.2v-5.2h-1.5v-1.1h.3c1.1,0,1.4-.3,1.4-1.9v-.6h1.2Z"/>
      <path class="st4" d="M353.4,343.8c0-3.3-.8-5.4-1.8-7.4h1.1c.9,1.8,2.1,4.1,2.1,7.4s-1.2,5.5-2.1,7.4h-1.1c1-2,1.8-4.2,1.8-7.4Z"/>
      <path class="st4" d="M361.4,340.6h1.5l1.8,5.4c.2.7.4,1.3.4,1.3h0s.2-.6.4-1.3l1.9-5.4h1.4l-2.9,8.4h-1.5l-3-8.4Z"/>
      <path class="st4" d="M373.9,349.3c-2.6,0-3.8-1.9-3.8-4.4s1.3-4.5,3.8-4.5,3.5,1.9,3.5,4.1v.7h-5.8c.1,1.7.8,2.9,2.4,2.9s1.8-.8,1.9-1.3h1.4c-.4,1.5-1.6,2.5-3.4,2.5ZM375.9,344c0-1.4-.6-2.5-2.1-2.5s-2.1,1.1-2.3,2.6h4.4Z"/>
      <path class="st4" d="M379.7,340.6h1.4v1.6h0c.4-.9,1.4-1.8,2.7-1.8h.1v1.5h-.3c-1.5,0-2.5.9-2.5,2.5v4.6h-1.4v-8.4h0Z"/>
      <path class="st4" d="M390.1,342.7c-.1-.8-.7-1.2-1.7-1.2s-1.6.6-1.6,1.4.4,1,1.3,1.1l1.3.2c1.8.3,2.4,1,2.4,2.5s-1.4,2.6-3.3,2.6-3.2-.8-3.3-2.6h1.4c.1.7.4,1.5,1.9,1.5s1.9-.5,1.9-1.4-.2-1-1.3-1.2l-1.3-.2c-1.5-.2-2.3-.9-2.3-2.3s1.1-2.6,3.1-2.6,2.9.9,3,2.3h-1.5Z"/>
      <path class="st4" d="M394.2,337.1h1.5v1.5h-1.5v-1.5ZM394.2,340.6h1.5v8.4h-1.5v-8.4Z"/>
      <path class="st4" d="M398.1,344.8c0-2.6,1.4-4.4,3.8-4.4s3.8,1.8,3.8,4.4-1.4,4.4-3.8,4.4c-2.5.1-3.8-1.7-3.8-4.4ZM399.6,344.8c0,2.1.7,3.3,2.3,3.3s2.3-1.2,2.3-3.3-.7-3.3-2.3-3.3-2.3,1.3-2.3,3.3Z"/>
      <path class="st4" d="M413.5,343.8c0-.6,0-1.3-.3-1.7-.3-.4-.8-.6-1.3-.6-1.6,0-2.3,1-2.3,2.4v5.1h-1.4v-8.4h1.4v1.4h0c.4-.9,1.4-1.6,2.7-1.6s2.7.8,2.7,2.8v5.9h-1.4v-5.3h-.1Z"/>
      <path class="st4" d="M422.1,342.7c-.1-.8-.7-1.2-1.7-1.2s-1.6.6-1.6,1.4.4,1,1.3,1.1l1.3.2c1.8.3,2.4,1,2.4,2.5s-1.4,2.6-3.3,2.6-3.2-.8-3.3-2.6h1.4c.1.7.4,1.5,1.9,1.5s1.9-.5,1.9-1.4-.2-1-1.3-1.2l-1.3-.2c-1.5-.2-2.3-.9-2.3-2.3s1.1-2.6,3.1-2.6,2.9.9,3,2.3h-1.5Z"/>
      <path class="st4" d="M425.7,347.1h2v2h-2v-2Z"/>
    </g>
  </g>
</svg>