<?xml version="1.0" encoding="UTF-8"?>
<svg id="Ebene_1" xmlns="http://www.w3.org/2000/svg" version="1.1" viewBox="0 0 486.7 132.1">
  <!-- Generator: Adobe Illustrator 29.7.1, SVG Export Plug-In . SVG Version: 2.1.1 Build 8)  -->
  <defs>
    <style>
      .st0 {
        fill: #fff;
      }

      .st1 {
        display: none;
      }
    </style>
  </defs>
  <g>
    <path class="st0" d="M54.4,30.7v80.6c-.2-.1-.4-.3-.7-.4-1.7-1.1-3.4-2.2-5-3.3V39.2l-30.6,12.5v22.9c-.2-.3-.4-.6-.6-.9-1.9-3.2-3.6-6.5-5.2-9.9v-15.9h0s36.2-14.8,36.2-14.8h0s0,0,0,0l5.7-2.3Z"/>
    <polygon class="st0" points="48.6 33 48.6 33.1 48.6 33.1 48.6 33"/>
    <polygon class="st0" points="48.6 33.1 48.6 33 48.6 33.1 48.6 33.1"/>
    <path class="st0" d="M87.8,41v83c-1.9-.3-3.8-.7-5.7-1.2V45l-5.7-2v78.3c-.7-.2-1.4-.4-2.1-.7-1.2-.4-2.4-.8-3.6-1.3V40.9l-5.6-2v78.1c-1.9-.9-3.8-1.8-5.7-2.8V30.9h0l5.2,1.8.6.2,11.2,4h0s5.7,2,5.7,2l5.7,2.1Z"/>
    <polygon class="st0" points="76.4 36.9 76.4 36.9 76.3 36.9 76.4 36.9"/>
    <polygon class="st0" points="82.1 16.5 82.1 16.5 82.1 16.5 82.1 16.5"/>
    <polygon class="st0" points="124.6 0 124.6 76.2 118.9 74.6 118.9 8.4 87.8 20.4 87.8 41 82.1 38.9 82.1 16.5 82.1 16.5 118.9 2.3 124.6 0"/>
    <polygon class="st0" points="171.3 16.1 171.3 89.5 165.5 87.9 165.5 20 158.9 17.5 158.9 86 153.2 84.3 153.2 15.3 147.1 13 147.1 82.6 141.4 81 141.4 10.8 135 8.3 135 79.1 129.2 77.5 129.2 0 135 2.2 141.4 4.7 147.1 6.9 165.5 13.9 171.3 16.1"/>
    <path class="st0" d="M171.3,93.9l-51.8-14.5-24.9,48.2c-3.1-.2-6.2-.6-9.2-1.1-1.9-.3-3.8-.7-5.7-1.2-1.9-.4-3.8-1-5.7-1.5-.7-.2-1.4-.4-2.1-.7-1.2-.4-2.4-.8-3.6-1.3-1.9-.7-3.7-1.5-5.6-2.3-1.9-.9-3.8-1.8-5.7-2.8-1.7-.9-3.4-1.9-5-2.9-.2-.1-.4-.3-.7-.4-1.7-1.1-3.4-2.2-5-3.3-11.9-8.3-22-19.2-29.7-31.6-.3-.5-.6-.9-.9-1.4-.2-.3-.4-.6-.6-.9-1.9-3.2-3.6-6.5-5.2-9.9C4.1,53.7.7,40,0,26c0,.6,0,1.3,0,2,0,.6,0,1.2,0,1.8v.2c0,.8,0,1.6,0,2.4.3,11.6,2.6,22.8,6.5,33.1,7.5,18.4,19.6,34.5,35,46.6,1.5,1.1,3.1,2.2,4.7,3.3.9.6,1.7,1.2,2.6,1.7.8.5,1.6,1,2.4,1.5.9.5,1.9,1.1,2.8,1.6.9.5,1.9,1,2.9,1.5,1.9.9,3.8,1.8,5.7,2.6,1.8.8,3.7,1.5,5.6,2.2,1.2.4,2.4.8,3.6,1.2.7.2,1.4.4,2.1.6,6.8,2,13.8,3.2,21,3.7.2,0,.3,0,.5,0,.2,0,.5,0,.7,0,0,0,.1,0,.1,0,1,0,1.9,0,2.9.1h.2s1-1.8,1.8-3.5l.4-.8h0l19.1-38.8,21.1,33.8,19.1,2.8c8.1-3.8,15.7-8.6,22.6-14.2l-12.1-17.5Z"/>
    <path class="st0" d="M212.8,18.3c0-2.6,1.9-4.4,4.6-4.4s4.6,1.8,4.6,4.4-1.9,4.4-4.6,4.4-4.6-1.8-4.6-4.4ZM213.5,28.2h7.8v32.2h-7.8V28.2Z"/>
    <path class="st0" d="M225.9,28.2h6.3l.6,4.4h.2c2.7-2.8,5.8-5.2,9.9-5.2s7.4,2.2,8.9,5.8c3.1-3.3,6.2-5.8,10.3-5.8,6.8,0,9.9,4.7,9.9,12.8v20.2h-7.8v-19.2c0-5.2-1.5-7.1-4.8-7.1s-4.2,1.2-6.6,3.9v22.4h-7.7v-19.2c0-5.2-1.6-7.1-4.8-7.1s-4.2,1.2-6.6,3.9v22.4h-7.8V28.2Z"/>
    <path class="st0" d="M276.5,28.2h6.3l.6,4.4h.2c2.7-2.8,5.8-5.2,9.9-5.2s7.4,2.2,8.9,5.8c3.1-3.3,6.2-5.8,10.3-5.8,6.8,0,9.9,4.7,9.9,12.8v20.2h-7.8v-19.2c0-5.2-1.5-7.1-4.8-7.1s-4.2,1.2-6.6,3.9v22.4h-7.7v-19.2c0-5.2-1.6-7.1-4.8-7.1s-4.2,1.2-6.6,3.9v22.4h-7.8V28.2Z"/>
    <path class="st0" d="M324.9,44.3c0-10.7,7.3-17,15.4-17s15.3,6.2,15.3,17-7.3,16.8-15.3,16.8-15.4-6.2-15.4-16.8ZM347.7,44.3c0-6.4-2.7-10.6-7.4-10.6s-7.4,4.2-7.4,10.6,2.7,10.5,7.4,10.5,7.4-4.2,7.4-10.5Z"/>
    <path class="st0" d="M367.5,57h-.2l-.7,3.4h-6.1V14.2h7.8v11.9l-.3,5.3c2.7-2.4,6-4,9.2-4,8.1,0,12.7,6.5,12.7,16.4s-6.5,17.4-13.7,17.4-6.1-1.5-8.8-4.2ZM382.1,43.9c0-6.3-2.1-10.1-6.9-10.1s-4.5,1.1-6.9,3.5v14.9c2.2,1.9,4.5,2.6,6.3,2.6,4.2,0,7.5-3.7,7.5-10.9Z"/>
    <path class="st0" d="M391.9,18.3c0-2.6,1.9-4.4,4.6-4.4s4.6,1.8,4.6,4.4-1.9,4.4-4.6,4.4-4.6-1.8-4.6-4.4ZM392.7,28.2h7.8v32.2h-7.8V28.2Z"/>
    <path class="st0" d="M405.1,51.9V14.2h7.8v38.2c0,1.9.9,2.6,1.6,2.6s.7,0,1.2-.1l.9,5.7c-.9.5-2.2.7-4.1.7-5.4,0-7.5-3.5-7.5-9.2Z"/>
    <path class="st0" d="M417.4,18.3c0-2.6,1.9-4.4,4.6-4.4s4.6,1.8,4.6,4.4-1.9,4.4-4.6,4.4-4.6-1.8-4.6-4.4ZM418.1,28.2h7.8v32.2h-7.8V28.2Z"/>
    <path class="st0" d="M428.5,44.3c0-10.5,7.3-16.9,14.9-16.9s13.4,6.3,13.4,15.3-.1,2.7-.4,3.9h-20.3c.8,5.4,4.2,8.5,9.3,8.5s5.2-.8,7.5-2.2l2.6,4.8c-3,2.2-6.9,3.4-11.1,3.4-8.9,0-15.8-6.2-15.8-16.9ZM449.9,40.9c0-4.7-2.2-7.5-6.4-7.5s-6.8,2.6-7.5,7.5h13.9Z"/>
    <path class="st0" d="M459,28.2h6.3l.6,4.3h.2c2.9-2.7,6.2-5.1,10.5-5.1,6.9,0,9.9,4.7,9.9,12.8v20.2h-7.7v-19.2c0-5.2-1.5-7.1-4.9-7.1s-4.6,1.3-7.2,3.9v22.4h-7.8V28.2Z"/>
    <g>
      <path class="st0" d="M213.7,86.9h6.3l.6,5.7h.2c2.3-4.1,5.7-6.5,9-6.5s2.6.3,3.6.6l-1.5,6.5c-1-.3-1.7-.4-3-.4-2.5,0-5.5,1.7-7.4,6.5v19.2h-7.7v-31.7Z"/>
      <path class="st0" d="M236.5,102.8c0-10.3,7.2-16.6,14.6-16.6s13.2,6.2,13.2,15.1-.1,2.7-.4,3.9h-20c.8,5.3,4.1,8.4,9.2,8.4s5.2-.8,7.4-2.2l2.6,4.8c-3,2.2-6.8,3.4-11,3.4-8.8,0-15.6-6.1-15.6-16.6ZM257.7,99.4c0-4.6-2.2-7.4-6.3-7.4s-6.7,2.6-7.4,7.4h13.7Z"/>
      <path class="st0" d="M270.7,102.8c0-10.4,6.5-16.7,13.4-16.7s5.8,1.4,8.3,3.5l-.3-5.1v-11.4h7.6v45.5h-6.2l-.6-3.4h-.3c-2.3,2.3-5.5,4.2-8.9,4.2-7.9,0-13-6.1-13-16.6ZM292,109.6v-14.6c-2.1-1.9-4.2-2.6-6.3-2.6-3.9,0-7.2,3.7-7.2,10.3s2.6,10.4,7.1,10.4,4.5-1,6.5-3.5Z"/>
      <path class="st0" d="M308.6,110.1c0-7,5.5-10.5,18.6-11.9-.1-3.2-1.4-5.9-5.7-5.9s-6.1,1.3-8.9,3l-2.7-5c3.5-2.2,8-4.1,13-4.1,7.9,0,11.9,4.9,11.9,13.7v18.8h-6.2l-.6-3.5h-.3c-2.8,2.5-5.9,4.3-9.7,4.3-5.5,0-9.4-3.7-9.4-9.3ZM327.1,110.1v-6.7c-8.6,1-11.2,3-11.2,6.2s1.8,3.7,4.4,3.7,4.5-1,6.8-3.2Z"/>
      <path class="st0" d="M344.7,73.1h7.5v28.1h.3l11.4-14.3h8.4l-10.8,13,11.9,18.7h-8.3l-8.1-13.6-4.8,5.5v8.1h-7.5v-45.5Z"/>
      <path class="st0" d="M381.9,107.9v-14.9h-4.5v-5.7l4.9-.4.9-9.9h6.3v9.9h8.1v6.1h-8.1v14.9c0,3.7,1.5,5.5,4.5,5.5s2.2-.2,3.3-.6l1.4,5.4c-1.7.8-4,1.4-6.6,1.4-7.4,0-10.1-4.6-10.1-11.5Z"/>
      <path class="st0" d="M405.6,77.1c0-2.6,1.9-4.3,4.6-4.3s4.6,1.7,4.6,4.3-1.9,4.3-4.6,4.3-4.6-1.7-4.6-4.3ZM406.3,86.9h7.7v31.7h-7.7v-31.7Z"/>
      <path class="st0" d="M422,102.8c0-10.6,7.2-16.7,15.2-16.7s15.1,6.1,15.1,16.7-7.2,16.6-15.1,16.6-15.2-6.1-15.2-16.6ZM444.4,102.8c0-6.3-2.7-10.5-7.3-10.5s-7.3,4.1-7.3,10.5,2.7,10.4,7.3,10.4,7.3-4.1,7.3-10.4Z"/>
      <path class="st0" d="M459.3,86.9h6.3l.6,4.3h.2c2.8-2.7,6.1-5,10.4-5,6.8,0,9.8,4.6,9.8,12.6v19.9h-7.6v-18.9c0-5.2-1.5-7-4.8-7s-4.6,1.3-7.1,3.9v22.1h-7.7v-31.7Z"/>
    </g>
    <g>
      <path class="st0" d="M227,18.9c0-2.1,1.3-3.3,2.7-3.3s1.2.3,1.6.7v-1c0,0,0-2.3,0-2.3h1.5v9h-1.2v-.7h-.2c-.5.5-1.1.8-1.8.8-1.6,0-2.6-1.2-2.6-3.3ZM231.2,20.3v-2.9c-.4-.4-.8-.5-1.3-.5-.8,0-1.4.7-1.4,2s.5,2.1,1.4,2.1.9-.2,1.3-.7Z"/>
      <path class="st0" d="M236.2,13.8c0-.5.4-.9.9-.9s.9.3.9.9-.4.9-.9.9-.9-.3-.9-.9ZM236.3,15.8h1.5v6.3h-1.5v-6.3Z"/>
      <path class="st0" d="M241,18.9c0-2,1.4-3.3,2.9-3.3s2.6,1.2,2.6,3,0,.5,0,.8h-4c.2,1,.8,1.7,1.8,1.7s1-.2,1.5-.4l.5.9c-.6.4-1.4.7-2.2.7-1.7,0-3.1-1.2-3.1-3.3ZM245.2,18.3c0-.9-.4-1.5-1.3-1.5s-1.3.5-1.5,1.5h2.7Z"/>
      <path class="st0" d="M253.9,19.7v-3.9h1.5v3.8c0,1,.3,1.4,1,1.4s.9-.3,1.4-.9v-4.3h1.5v6.3h-1.2v-.9h-.2c-.6.7-1.2,1.1-2,1.1-1.3,0-1.9-.9-1.9-2.5Z"/>
      <path class="st0" d="M262.9,15.8h1.2v.8h.2c.6-.5,1.2-1,2.1-1,1.4,0,1.9.9,1.9,2.5v3.9h-1.5v-3.8c0-1-.3-1.4-1-1.4s-.9.3-1.4.8v4.4h-1.5v-6.3Z"/>
      <path class="st0" d="M271.5,20.4c0-1.4,1.1-2.1,3.7-2.4,0-.6-.3-1.2-1.1-1.2s-1.2.3-1.8.6l-.5-1c.7-.4,1.6-.8,2.6-.8,1.6,0,2.4,1,2.4,2.7v3.7h-1.2v-.7h-.2c-.6.5-1.2.8-1.9.8-1.1,0-1.9-.7-1.9-1.8ZM275.2,20.4v-1.3c-1.7.2-2.2.6-2.2,1.2s.4.7.9.7.9-.2,1.4-.6Z"/>
      <path class="st0" d="M281.5,21.4h0v.7h-1.3v-9h1.5v3.4c.5-.5,1.1-.8,1.8-.8,1.6,0,2.5,1.3,2.5,3.2s-1.3,3.4-2.7,3.4-1.2-.3-1.7-.8ZM284.4,18.9c0-1.2-.4-2-1.3-2s-.9.2-1.3.7v2.9c.4.4.9.5,1.2.5.8,0,1.5-.7,1.5-2.1Z"/>
      <path class="st0" d="M289.1,13h1.5v3.5c.4-.5,1.1-.9,1.9-.9,1.4,0,1.9.9,1.9,2.5v3.9h-1.5v-3.8c0-1-.3-1.4-1-1.4s-.9.3-1.4.8v4.4h-1.5v-9Z"/>
      <path class="st0" d="M297.7,20.4c0-1.4,1.1-2.1,3.7-2.4,0-.6-.3-1.2-1.1-1.2s-1.2.3-1.8.6l-.5-1c.7-.4,1.6-.8,2.6-.8,1.6,0,2.4,1,2.4,2.7v3.7h-1.2v-.7h-.2c-.6.5-1.2.8-1.9.8-1.1,0-1.9-.7-1.9-1.8ZM298.5,13.9c0-.4.3-.8.8-.8s.8.3.8.8-.3.8-.8.8-.8-.3-.8-.8ZM301.4,20.4v-1.3c-1.7.2-2.2.6-2.2,1.2s.4.7.9.7.9-.2,1.4-.6ZM301.1,13.9c0-.4.3-.8.8-.8s.8.3.8.8-.3.8-.8.8-.8-.3-.8-.8Z"/>
      <path class="st0" d="M306.4,15.8h1.2v.8h.2c.6-.5,1.2-1,2.1-1,1.4,0,1.9.9,1.9,2.5v3.9h-1.5v-3.8c0-1-.3-1.4-1-1.4s-.9.3-1.4.8v4.4h-1.5v-6.3Z"/>
      <path class="st0" d="M314.9,23.2c0-.5.3-1,.9-1.3h0c-.3-.3-.6-.6-.6-1.1s.3-.9.7-1.2h0c-.4-.4-.8-1-.8-1.7,0-1.4,1.2-2.3,2.5-2.3s.7,0,.9.2h2.3v1.1h-1.1c.2.2.3.6.3,1,0,1.4-1.1,2.1-2.4,2.1s-.6,0-.8-.2c-.2.2-.3.3-.3.6s.3.6,1,.6h1.1c1.5,0,2.3.5,2.3,1.6s-1.3,2.2-3.4,2.2-2.6-.5-2.6-1.6ZM319.4,22.9c0-.5-.4-.6-1.1-.6h-.8c-.3,0-.6,0-.9,0-.3.3-.5.5-.5.8,0,.6.6.9,1.6.9s1.7-.5,1.7-1ZM318.6,17.9c0-.8-.5-1.2-1.1-1.2s-1.1.4-1.1,1.2.5,1.2,1.1,1.2,1.1-.4,1.1-1.2Z"/>
      <path class="st0" d="M323.6,13.8c0-.5.4-.9.9-.9s.9.3.9.9-.4.9-.9.9-.9-.3-.9-.9ZM323.7,15.8h1.5v6.3h-1.5v-6.3Z"/>
      <path class="st0" d="M328.4,23.2c0-.5.3-1,.9-1.3h0c-.3-.3-.6-.6-.6-1.1s.3-.9.7-1.2h0c-.4-.4-.8-1-.8-1.7,0-1.4,1.2-2.3,2.5-2.3s.7,0,.9.2h2.3v1.1h-1.1c.2.2.3.6.3,1,0,1.4-1.1,2.1-2.4,2.1s-.6,0-.8-.2c-.2.2-.3.3-.3.6s.3.6,1,.6h1.1c1.5,0,2.3.5,2.3,1.6s-1.3,2.2-3.4,2.2-2.6-.5-2.6-1.6ZM332.9,22.9c0-.5-.4-.6-1.1-.6h-.8c-.3,0-.6,0-.9,0-.3.3-.5.5-.5.8,0,.6.6.9,1.6.9s1.7-.5,1.7-1ZM332.2,17.9c0-.8-.5-1.2-1.1-1.2s-1.1.4-1.1,1.2.5,1.2,1.1,1.2,1.1-.4,1.1-1.2Z"/>
      <path class="st0" d="M336.6,18.9c0-2,1.4-3.3,2.9-3.3s2.6,1.2,2.6,3,0,.5,0,.8h-4c.2,1,.8,1.7,1.8,1.7s1-.2,1.5-.4l.5.9c-.6.4-1.4.7-2.2.7-1.7,0-3.1-1.2-3.1-3.3ZM340.8,18.3c0-.9-.4-1.5-1.3-1.5s-1.3.5-1.5,1.5h2.7Z"/>
    </g>
  </g>
  <g class="st1">
    <path class="st0" d="M62.5,32.2v77.2c-.2-.1-.4-.3-.6-.4-1.6-1-3.3-2.1-4.8-3.2V40.3l-29.3,12v21.9c-.2-.3-.4-.6-.5-.9-1.8-3.1-3.5-6.2-4.9-9.5v-15.2h0s34.6-14.2,34.6-14.2h0s0,0,0,0l5.5-2.2Z"/>
    <polygon class="st0" points="57.1 34.4 57.1 34.5 57 34.5 57.1 34.4"/>
    <polygon class="st0" points="57 34.5 57.1 34.4 57.1 34.5 57 34.5"/>
    <path class="st0" d="M94.5,42v79.4c-1.8-.3-3.7-.7-5.5-1.1V45.9l-5.5-2v74.9c-.7-.2-1.4-.4-2-.7-1.2-.4-2.3-.8-3.4-1.2V42l-5.3-1.9v74.7c-1.9-.8-3.7-1.7-5.5-2.7V32.4h0l4.9,1.8.5.2,10.8,3.8h0s5.5,2,5.5,2l5.5,2Z"/>
    <polygon class="st0" points="83.6 38.1 83.6 38.1 83.6 38.1 83.6 38.1"/>
    <polygon class="st0" points="89.1 18.6 89.1 18.6 89.1 18.6 89.1 18.6"/>
    <polygon class="st0" points="129.8 2.9 129.8 75.8 124.3 74.2 124.3 10.9 94.5 22.3 94.5 42 89.1 40.1 89.1 18.6 89.1 18.6 124.3 5 129.8 2.9"/>
    <polygon class="st0" points="174.4 18.2 174.4 88.5 169 86.9 169 22 162.6 19.6 162.6 85.1 157.1 83.6 157.1 17.5 151.3 15.3 151.3 81.9 145.8 80.3 145.8 13.1 139.7 10.8 139.7 78.6 134.2 77 134.2 2.8 139.7 4.9 145.8 7.3 151.3 9.4 169 16.1 174.4 18.2"/>
    <path class="st0" d="M174.4,92.7l-49.6-13.9-23.9,46.1c-3-.2-5.9-.6-8.8-1.1-1.8-.3-3.7-.7-5.5-1.1-1.8-.4-3.7-.9-5.5-1.5-.7-.2-1.4-.4-2-.7-1.2-.4-2.3-.8-3.4-1.2-1.8-.7-3.6-1.4-5.3-2.2-1.8-.8-3.7-1.7-5.5-2.7-1.6-.9-3.2-1.8-4.8-2.7-.2-.1-.4-.3-.6-.4-1.6-1-3.3-2.1-4.8-3.2-11.4-8-21.1-18.4-28.5-30.3-.3-.4-.6-.9-.8-1.3-.2-.3-.4-.6-.5-.9-1.8-3.1-3.5-6.2-4.9-9.5-5.5-12-8.8-25.1-9.4-38.6,0,.6,0,1.2,0,1.9,0,.6,0,1.1,0,1.7v.2c0,.8,0,1.5,0,2.3.3,11.1,2.5,21.8,6.2,31.7,7.2,17.6,18.8,33,33.5,44.6,1.5,1.1,2.9,2.1,4.5,3.2.8.6,1.7,1.1,2.5,1.6.8.5,1.5,1,2.3,1.4.9.5,1.8,1,2.7,1.5.9.5,1.8,1,2.8,1.4,1.8.9,3.6,1.7,5.5,2.5,1.7.8,3.5,1.4,5.3,2.1,1.1.4,2.3.8,3.4,1.2.7.2,1.4.4,2,.6,6.5,1.9,13.2,3.1,20.1,3.5.2,0,.3,0,.5,0,.2,0,.4,0,.7,0,0,0,0,0,.1,0,.9,0,1.8,0,2.7.1h.2s1-1.7,1.8-3.4l.3-.7h0l18.3-37.1,20.2,32.4,18.3,2.7c7.8-3.7,15-8.3,21.6-13.6l-11.6-16.8Z"/>
    <path class="st0" d="M214.2,20.3c0-2.5,1.8-4.2,4.4-4.2s4.4,1.7,4.4,4.2-1.8,4.2-4.4,4.2-4.4-1.7-4.4-4.2ZM214.9,29.8h7.5v30.8h-7.5v-30.8Z"/>
    <path class="st0" d="M226.8,29.8h6.1l.6,4.2h.2c2.6-2.7,5.6-4.9,9.5-4.9s7.1,2.1,8.5,5.5c2.9-3.1,6-5.5,9.9-5.5,6.5,0,9.5,4.5,9.5,12.3v19.3h-7.5v-18.4c0-5-1.4-6.8-4.6-6.8s-4,1.2-6.3,3.8v21.4h-7.4v-18.4c0-5-1.5-6.8-4.6-6.8s-4,1.2-6.3,3.8v21.4h-7.5v-30.8Z"/>
    <path class="st0" d="M275.1,29.8h6.1l.6,4.2h.2c2.6-2.7,5.6-4.9,9.5-4.9s7.1,2.1,8.5,5.5c2.9-3.1,6-5.5,9.9-5.5,6.5,0,9.5,4.5,9.5,12.3v19.3h-7.5v-18.4c0-5-1.4-6.8-4.6-6.8s-4,1.2-6.3,3.8v21.4h-7.4v-18.4c0-5-1.5-6.8-4.6-6.8s-4,1.2-6.3,3.8v21.4h-7.5v-30.8Z"/>
    <path class="st0" d="M321.5,45.3c0-10.3,7-16.2,14.7-16.2s14.7,6,14.7,16.2-7,16.1-14.7,16.1-14.7-5.9-14.7-16.1ZM343.3,45.3c0-6.1-2.6-10.1-7.1-10.1s-7.1,4-7.1,10.1,2.6,10.1,7.1,10.1,7.1-4,7.1-10.1Z"/>
    <path class="st0" d="M362.3,57.4h-.2l-.7,3.3h-5.8V16.4h7.5v11.4l-.3,5.1c2.6-2.3,5.7-3.8,8.8-3.8,7.7,0,12.2,6.2,12.2,15.7s-6.3,16.7-13.1,16.7-5.8-1.4-8.4-4ZM376.2,44.8c0-6.1-2-9.6-6.6-9.6s-4.3,1.1-6.6,3.4v14.2c2.1,1.8,4.3,2.4,6,2.4,4,0,7.1-3.5,7.1-10.4Z"/>
    <path class="st0" d="M385.7,20.3c0-2.5,1.8-4.2,4.4-4.2s4.4,1.7,4.4,4.2-1.8,4.2-4.4,4.2-4.4-1.7-4.4-4.2ZM386.3,29.8h7.5v30.8h-7.5v-30.8Z"/>
    <path class="st0" d="M398.2,52.5V16.4h7.5v36.5c0,1.8.8,2.4,1.6,2.4s.6,0,1.1-.1l.9,5.5c-.9.4-2.1.7-3.9.7-5.2,0-7.1-3.4-7.1-8.8Z"/>
    <path class="st0" d="M410,20.3c0-2.5,1.8-4.2,4.4-4.2s4.4,1.7,4.4,4.2-1.8,4.2-4.4,4.2-4.4-1.7-4.4-4.2ZM410.7,29.8h7.5v30.8h-7.5v-30.8Z"/>
    <path class="st0" d="M420.6,45.2c0-10,7-16.2,14.2-16.2s12.8,6,12.8,14.7-.1,2.6-.4,3.8h-19.4c.8,5.1,4,8.1,8.9,8.1s5-.8,7.1-2.1l2.5,4.6c-2.9,2.1-6.6,3.3-10.7,3.3-8.5,0-15.2-5.9-15.2-16.2ZM441.2,41.9c0-4.5-2.1-7.1-6.1-7.1s-6.5,2.5-7.1,7.1h13.3Z"/>
    <g>
      <path class="st0" d="M215.1,86h6l.6,5.4h.2c2.2-4,5.4-6.2,8.6-6.2s2.5.2,3.5.6l-1.5,6.2c-.9-.2-1.7-.4-2.9-.4-2.4,0-5.3,1.6-7.1,6.2v18.4h-7.3v-30.4Z"/>
      <path class="st0" d="M236.9,101.2c0-9.9,6.9-15.9,14-15.9s12.7,5.9,12.7,14.4-.1,2.6-.4,3.7h-19.1c.7,5.1,4,8,8.8,8s4.9-.7,7-2.1l2.5,4.6c-2.8,2.1-6.5,3.2-10.5,3.2-8.4,0-14.9-5.8-14.9-15.9ZM257.1,98c0-4.4-2.1-7-6.1-7s-6.4,2.5-7,7h13.1Z"/>
      <path class="st0" d="M269.6,101.2c0-9.9,6.2-16,12.8-16s5.6,1.3,7.9,3.3l-.3-4.9v-10.9h7.3v43.6h-5.9l-.6-3.3h-.2c-2.2,2.2-5.3,4-8.5,4-7.6,0-12.5-5.9-12.5-15.9ZM290,107.7v-14c-2-1.9-4-2.5-6.1-2.5-3.8,0-6.9,3.6-6.9,9.8s2.5,9.9,6.8,9.9,4.3-1,6.2-3.3Z"/>
      <path class="st0" d="M305.8,108.2c0-6.7,5.3-10,17.8-11.4-.1-3.1-1.4-5.7-5.4-5.7s-5.8,1.2-8.5,2.8l-2.6-4.8c3.3-2.1,7.7-4,12.5-4,7.5,0,11.4,4.7,11.4,13.2v18h-5.9l-.6-3.3h-.2c-2.7,2.3-5.7,4.1-9.3,4.1-5.3,0-9-3.6-9-8.9ZM323.6,108.2v-6.4c-8.3,1-10.7,2.8-10.7,5.9s1.7,3.6,4.2,3.6,4.3-1,6.5-3.1Z"/>
      <path class="st0" d="M340.5,72.8h7.2v26.9h.2l10.9-13.7h8l-10.3,12.5,11.4,17.9h-7.9l-7.7-13-4.6,5.2v7.8h-7.2v-43.6Z"/>
      <path class="st0" d="M376,106.1v-14.3h-4.3v-5.4l4.7-.4.9-9.4h6.1v9.4h7.7v5.8h-7.7v14.3c0,3.5,1.4,5.2,4.3,5.2s2.1-.2,3.1-.6l1.3,5.1c-1.6.7-3.8,1.3-6.3,1.3-7.1,0-9.7-4.4-9.7-11.1Z"/>
      <path class="st0" d="M398.7,76.7c0-2.5,1.8-4.1,4.4-4.1s4.4,1.7,4.4,4.1-1.8,4.1-4.4,4.1-4.4-1.7-4.4-4.1ZM399.4,86h7.3v30.4h-7.3v-30.4Z"/>
      <path class="st0" d="M414.4,101.2c0-10.1,6.9-16,14.5-16s14.4,5.9,14.4,16-6.9,15.9-14.4,15.9-14.5-5.8-14.5-15.9ZM435.9,101.2c0-6.1-2.6-10-7-10s-7,4-7,10,2.6,9.9,7,9.9,7-4,7-9.9Z"/>
      <path class="st0" d="M450.1,86h6l.6,4.1h.2c2.7-2.6,5.8-4.8,9.9-4.8,6.5,0,9.4,4.4,9.4,12.1v19h-7.3v-18.1c0-4.9-1.4-6.7-4.6-6.7s-4.4,1.2-6.8,3.7v21.1h-7.3v-30.4Z"/>
    </g>
    <g>
      <path class="st0" d="M227.8,21c0-2,1.2-3.2,2.5-3.2s1.1.3,1.6.7v-1c0,0,0-2.2,0-2.2h1.4v8.7h-1.2v-.6h-.2c-.4.4-1.1.8-1.7.8-1.5,0-2.5-1.2-2.5-3.1ZM231.8,22.2v-2.8c-.4-.4-.8-.5-1.2-.5-.7,0-1.4.7-1.4,1.9s.5,2,1.3,2,.8-.2,1.2-.7Z"/>
      <path class="st0" d="M236.6,16.1c0-.5.4-.8.9-.8s.9.3.9.8-.4.8-.9.8-.9-.3-.9-.8ZM236.7,17.9h1.5v6h-1.5v-6Z"/>
      <path class="st0" d="M241.2,20.9c0-2,1.4-3.2,2.8-3.2s2.5,1.2,2.5,2.9,0,.5,0,.7h-3.8c.1,1,.8,1.6,1.7,1.6s1-.1,1.4-.4l.5.9c-.6.4-1.3.6-2.1.6-1.7,0-3-1.2-3-3.2ZM245.2,20.3c0-.9-.4-1.4-1.2-1.4s-1.3.5-1.4,1.4h2.6Z"/>
      <path class="st0" d="M253.5,21.7v-3.8h1.4v3.6c0,1,.3,1.3.9,1.3s.9-.2,1.3-.8v-4.1h1.4v6h-1.2v-.9h-.1c-.5.6-1.1,1-1.9,1-1.3,0-1.8-.9-1.8-2.4Z"/>
      <path class="st0" d="M262.1,17.9h1.2v.8h.1c.5-.5,1.2-1,2-1,1.3,0,1.9.9,1.9,2.4v3.8h-1.4v-3.6c0-1-.3-1.3-.9-1.3s-.9.2-1.3.7v4.2h-1.5v-6Z"/>
      <path class="st0" d="M270.3,22.3c0-1.3,1.1-2,3.5-2.3,0-.6-.3-1.1-1.1-1.1s-1.2.2-1.7.6l-.5-1c.7-.4,1.5-.8,2.5-.8,1.5,0,2.3.9,2.3,2.6v3.6h-1.2v-.7h-.2c-.5.5-1.1.8-1.8.8-1.1,0-1.8-.7-1.8-1.8ZM273.9,22.3v-1.3c-1.6.2-2.1.6-2.1,1.2s.3.7.8.7.9-.2,1.3-.6Z"/>
      <path class="st0" d="M280,23.3h0v.6h-1.3v-8.7h1.5v3.2c.5-.4,1.1-.7,1.7-.7,1.5,0,2.4,1.2,2.4,3.1s-1.2,3.3-2.6,3.3-1.1-.3-1.6-.8ZM282.7,20.9c0-1.2-.4-1.9-1.3-1.9s-.8.2-1.3.7v2.8c.4.4.8.5,1.2.5.8,0,1.4-.7,1.4-2Z"/>
      <path class="st0" d="M287.2,15.3h1.5v3.4c.4-.5,1-.9,1.9-.9,1.3,0,1.9.9,1.9,2.4v3.8h-1.4v-3.6c0-1-.3-1.3-.9-1.3s-.9.2-1.3.7v4.2h-1.5v-8.7Z"/>
      <path class="st0" d="M295.4,22.3c0-1.3,1.1-2,3.5-2.3,0-.6-.3-1.1-1.1-1.1s-1.2.2-1.7.6l-.5-1c.7-.4,1.5-.8,2.5-.8,1.5,0,2.3.9,2.3,2.6v3.6h-1.2v-.7h-.2c-.5.5-1.1.8-1.8.8-1.1,0-1.8-.7-1.8-1.8ZM296.2,16.1c0-.4.3-.8.8-.8s.7.3.7.8-.3.8-.7.8-.8-.3-.8-.8ZM299,22.3v-1.3c-1.6.2-2.1.6-2.1,1.2s.3.7.8.7.9-.2,1.3-.6ZM298.7,16.1c0-.4.3-.8.7-.8s.8.3.8.8-.3.8-.8.8-.7-.3-.7-.8Z"/>
      <path class="st0" d="M303.8,17.9h1.2v.8h.1c.5-.5,1.2-1,2-1,1.3,0,1.9.9,1.9,2.4v3.8h-1.4v-3.6c0-1-.3-1.3-.9-1.3s-.9.2-1.3.7v4.2h-1.5v-6Z"/>
      <path class="st0" d="M311.9,25.1c0-.5.3-.9.9-1.3h0c-.3-.2-.6-.6-.6-1.1s.3-.9.7-1.1h0c-.4-.4-.8-.9-.8-1.6,0-1.4,1.1-2.2,2.4-2.2s.6,0,.9.1h2.2v1.1h-1.1c.2.2.3.6.3,1,0,1.3-1,2-2.3,2s-.5,0-.8-.1c-.2.1-.3.3-.3.6s.2.5,1,.5h1.1c1.4,0,2.2.5,2.2,1.5s-1.2,2.1-3.2,2.1-2.5-.5-2.5-1.6ZM316.2,24.7c0-.5-.4-.6-1-.6h-.8c-.3,0-.6,0-.8,0-.3.2-.5.5-.5.8,0,.5.6.8,1.5.8s1.6-.4,1.6-1ZM315.5,20c0-.7-.4-1.2-1-1.2s-1,.4-1,1.2.5,1.2,1,1.2,1-.4,1-1.2Z"/>
      <path class="st0" d="M320.2,16.1c0-.5.4-.8.9-.8s.9.3.9.8-.4.8-.9.8-.9-.3-.9-.8ZM320.4,17.9h1.5v6h-1.5v-6Z"/>
      <path class="st0" d="M324.8,25.1c0-.5.3-.9.9-1.3h0c-.3-.2-.6-.6-.6-1.1s.3-.9.7-1.1h0c-.4-.4-.8-.9-.8-1.6,0-1.4,1.1-2.2,2.4-2.2s.6,0,.9.1h2.2v1.1h-1.1c.2.2.3.6.3,1,0,1.3-1,2-2.3,2s-.5,0-.8-.1c-.2.1-.3.3-.3.6s.2.5,1,.5h1.1c1.4,0,2.2.5,2.2,1.5s-1.2,2.1-3.2,2.1-2.5-.5-2.5-1.6ZM329.2,24.7c0-.5-.4-.6-1-.6h-.8c-.3,0-.6,0-.8,0-.3.2-.5.5-.5.8,0,.5.6.8,1.5.8s1.6-.4,1.6-1ZM328.4,20c0-.7-.4-1.2-1-1.2s-1,.4-1,1.2.5,1.2,1,1.2,1-.4,1-1.2Z"/>
      <path class="st0" d="M332.7,20.9c0-2,1.4-3.2,2.8-3.2s2.5,1.2,2.5,2.9,0,.5,0,.7h-3.8c.1,1,.8,1.6,1.7,1.6s1-.1,1.4-.4l.5.9c-.6.4-1.3.6-2.1.6-1.7,0-3-1.2-3-3.2ZM336.7,20.3c0-.9-.4-1.4-1.2-1.4s-1.3.5-1.4,1.4h2.6Z"/>
    </g>
  </g>
</svg>