<?xml version="1.0" encoding="UTF-8"?>
<svg id="Ebene_1" xmlns="http://www.w3.org/2000/svg" version="1.1" viewBox="0 0 365.9 127.1">
  <!-- Generator: Adobe Illustrator 29.7.1, SVG Export Plug-In . SVG Version: 2.1.1 Build 8)  -->
  <defs>
    <style>
      .st0, .st1 {
        fill: #303030;
      }

      .st1 {
        font-family: SourceSansPro-Semibold, 'Source Sans Pro';
        font-size: 8.5px;
        font-weight: 600;
        letter-spacing: .1em;
      }

      .st2 {
        fill: #2d5985;
      }
    </style>
  </defs>
  <g>
    <path class="st2" d="M54.7,29.5v77.6c-.2-.1-.4-.3-.6-.4-1.7-1-3.3-2.1-4.9-3.2V37.7l-29.4,12v22c-.2-.3-.4-.6-.5-.9-1.8-3.1-3.5-6.3-5-9.5v-15.3h0s34.8-14.2,34.8-14.2h0s0,0,0,0l5.5-2.2Z"/>
    <polygon class="st2" points="49.2 31.8 49.2 31.8 49.1 31.8 49.2 31.8"/>
    <polygon class="st2" points="49.1 31.8 49.2 31.8 49.2 31.8 49.1 31.8"/>
    <path class="st2" d="M86.9,39.4v79.9c-1.9-.3-3.7-.7-5.5-1.1V43.3l-5.5-2v75.4c-.7-.2-1.4-.4-2.1-.7-1.2-.4-2.3-.8-3.4-1.2V39.4l-5.4-1.9v75.1c-1.9-.8-3.7-1.7-5.5-2.7V29.7h0l5,1.8.5.2,10.8,3.9h0s5.5,2,5.5,2l5.5,2Z"/>
    <polygon class="st2" points="75.9 35.5 75.9 35.5 75.9 35.5 75.9 35.5"/>
    <polygon class="st2" points="81.4 15.8 81.4 15.8 81.4 15.8 81.4 15.8"/>
    <polygon class="st2" points="122.3 0 122.3 73.3 116.8 71.8 116.8 8.1 86.9 19.6 86.9 39.4 81.4 37.5 81.4 15.8 81.4 15.8 116.8 2.2 122.3 0"/>
    <polygon class="st2" points="167.2 15.5 167.2 86.1 161.7 84.6 161.7 19.3 155.3 16.8 155.3 82.7 149.8 81.2 149.8 14.7 143.9 12.5 143.9 79.5 138.4 77.9 138.4 10.4 132.3 8 132.3 76.2 126.8 74.6 126.8 0 132.3 2.1 138.4 4.5 143.9 6.6 161.7 13.4 167.2 15.5"/>
    <path class="st2" d="M167.2,90.4l-49.8-14-24,46.4c-3-.2-6-.6-8.9-1.1-1.8-.3-3.7-.7-5.5-1.1-1.8-.4-3.7-.9-5.5-1.5-.7-.2-1.4-.4-2.1-.7-1.2-.4-2.3-.8-3.4-1.2-1.8-.7-3.6-1.4-5.4-2.2-1.9-.8-3.7-1.7-5.5-2.7-1.6-.9-3.3-1.8-4.8-2.8-.2-.1-.4-.3-.6-.4-1.7-1-3.3-2.1-4.9-3.2-11.4-8-21.2-18.5-28.6-30.4-.3-.4-.6-.9-.8-1.3-.2-.3-.4-.6-.5-.9-1.8-3.1-3.5-6.3-5-9.5C6.3,51.7,3,38.5,2.5,25c0,.6,0,1.3,0,1.9,0,.6,0,1.1,0,1.7v.2c0,.8,0,1.5,0,2.3.3,11.2,2.5,21.9,6.2,31.9,7.2,17.7,18.9,33.2,33.7,44.9,1.5,1.1,3,2.2,4.5,3.2.8.6,1.7,1.1,2.5,1.6.8.5,1.6,1,2.3,1.4.9.5,1.8,1,2.7,1.5.9.5,1.8,1,2.8,1.4,1.8.9,3.6,1.8,5.5,2.5,1.8.8,3.6,1.5,5.4,2.1,1.1.4,2.3.8,3.4,1.2.7.2,1.4.4,2.1.6,6.5,1.9,13.3,3.1,20.2,3.6.2,0,.3,0,.5,0,.2,0,.4,0,.7,0,0,0,0,0,.1,0,.9,0,1.8,0,2.8.1h.2s1-1.7,1.8-3.4l.3-.7h0l18.4-37.3,20.3,32.5,18.4,2.7c7.8-3.7,15.1-8.3,21.8-13.7l-11.7-16.9Z"/>
  </g>
  <g>
    <path class="st0" d="M181.3,32.3c0-1.7,1.3-2.9,3.1-2.9s3.1,1.2,3.1,2.9-1.3,2.9-3.1,2.9-3.1-1.2-3.1-2.9ZM181.7,38.8h5.2v21.4h-5.2v-21.4Z"/>
    <path class="st0" d="M190,38.8h4.2l.4,2.9h.1c1.8-1.9,3.9-3.4,6.6-3.4s4.9,1.4,5.9,3.8c2-2.2,4.1-3.8,6.9-3.8,4.5,0,6.6,3.1,6.6,8.5v13.4h-5.2v-12.7c0-3.5-1-4.7-3.2-4.7s-2.8.8-4.4,2.6v14.9h-5.1v-12.7c0-3.5-1-4.7-3.2-4.7s-2.8.8-4.4,2.6v14.9h-5.2v-21.4Z"/>
    <path class="st0" d="M223.6,38.8h4.2l.4,2.9h.1c1.8-1.9,3.9-3.4,6.6-3.4s4.9,1.4,5.9,3.8c2-2.2,4.1-3.8,6.9-3.8,4.5,0,6.6,3.1,6.6,8.5v13.4h-5.2v-12.7c0-3.5-1-4.7-3.2-4.7s-2.8.8-4.4,2.6v14.9h-5.1v-12.7c0-3.5-1-4.7-3.2-4.7s-2.8.8-4.4,2.6v14.9h-5.2v-21.4Z"/>
    <path class="st0" d="M255.7,49.6c0-7.1,4.9-11.3,10.2-11.3s10.2,4.1,10.2,11.3-4.9,11.2-10.2,11.2-10.2-4.1-10.2-11.2ZM270.9,49.6c0-4.3-1.8-7-4.9-7s-4.9,2.8-4.9,7,1.8,7,4.9,7,4.9-2.8,4.9-7Z"/>
    <path class="st0" d="M284.1,58h-.1l-.5,2.3h-4v-30.7h5.2v7.9l-.2,3.5c1.8-1.6,4-2.7,6.1-2.7,5.3,0,8.4,4.3,8.4,10.9s-4.3,11.6-9.1,11.6-4-1-5.8-2.8ZM293.7,49.3c0-4.2-1.4-6.7-4.6-6.7s-3,.7-4.6,2.3v9.9c1.4,1.3,3,1.7,4.2,1.7,2.8,0,5-2.4,5-7.2Z"/>
    <path class="st0" d="M300.3,32.3c0-1.7,1.3-2.9,3.1-2.9s3.1,1.2,3.1,2.9-1.3,2.9-3.1,2.9-3.1-1.2-3.1-2.9ZM300.8,38.8h5.2v21.4h-5.2v-21.4Z"/>
    <path class="st0" d="M309,54.6v-25.1h5.2v25.3c0,1.3.6,1.7,1.1,1.7s.4,0,.8,0l.6,3.8c-.6.3-1.5.5-2.7.5-3.6,0-5-2.3-5-6.1Z"/>
    <path class="st0" d="M317.2,32.3c0-1.7,1.3-2.9,3.1-2.9s3.1,1.2,3.1,2.9-1.3,2.9-3.1,2.9-3.1-1.2-3.1-2.9ZM317.7,38.8h5.2v21.4h-5.2v-21.4Z"/>
    <path class="st0" d="M324.5,49.5c0-7,4.9-11.2,9.9-11.2s8.9,4.2,8.9,10.2,0,1.8-.3,2.6h-13.5c.5,3.6,2.8,5.7,6.2,5.7s3.5-.5,5-1.5l1.7,3.2c-2,1.5-4.6,2.3-7.4,2.3-5.9,0-10.5-4.1-10.5-11.2ZM338.8,47.3c0-3.1-1.5-5-4.3-5s-4.5,1.7-5,5h9.2Z"/>
    <path class="st0" d="M344.8,38.8h4.2l.4,2.9h.1c1.9-1.8,4.1-3.4,7-3.4,4.6,0,6.6,3.1,6.6,8.5v13.4h-5.1v-12.7c0-3.5-1-4.7-3.3-4.7s-3.1.9-4.8,2.6v14.9h-5.2v-21.4Z"/>
    <g>
      <path class="st0" d="M181.9,77.8h4.2l.4,3.8h.1c1.5-2.7,3.8-4.3,6-4.3s1.8.2,2.4.4l-1,4.3c-.6-.2-1.2-.3-2-.3-1.7,0-3.7,1.1-4.9,4.3v12.8h-5.1v-21.1Z"/>
      <path class="st0" d="M197,88.4c0-6.9,4.8-11.1,9.7-11.1s8.8,4.1,8.8,10,0,1.8-.3,2.6h-13.3c.5,3.5,2.7,5.6,6.1,5.6s3.4-.5,4.9-1.5l1.7,3.2c-2,1.5-4.5,2.2-7.3,2.2-5.8,0-10.4-4-10.4-11.1ZM211.1,86.1c0-3.1-1.5-4.9-4.2-4.9s-4.5,1.7-4.9,4.9h9.1Z"/>
      <path class="st0" d="M219.7,88.4c0-6.9,4.3-11.1,8.9-11.1s3.9.9,5.5,2.3l-.2-3.4v-7.6h5.1v30.3h-4.1l-.4-2.3h-.2c-1.5,1.5-3.7,2.8-5.9,2.8-5.3,0-8.7-4.1-8.7-11ZM233.9,92.9v-9.7c-1.4-1.3-2.8-1.7-4.2-1.7-2.6,0-4.8,2.5-4.8,6.8s1.7,6.9,4.7,6.9,3-.7,4.3-2.3Z"/>
      <path class="st0" d="M244.9,93.2c0-4.6,3.7-6.9,12.3-7.9,0-2.1-.9-3.9-3.8-3.9s-4,.9-5.9,2l-1.8-3.3c2.3-1.5,5.3-2.7,8.7-2.7,5.2,0,7.9,3.3,7.9,9.1v12.5h-4.1l-.4-2.3h-.2c-1.9,1.6-3.9,2.8-6.4,2.8-3.7,0-6.3-2.5-6.3-6.2ZM257.2,93.2v-4.5c-5.7.7-7.5,2-7.5,4.1s1.2,2.5,2.9,2.5,3-.7,4.5-2.1Z"/>
      <path class="st0" d="M268.9,68.7h5v18.7h.2l7.6-9.5h5.6l-7.2,8.7,7.9,12.4h-5.5l-5.4-9-3.2,3.6v5.4h-5v-30.3Z"/>
      <path class="st0" d="M293.6,91.7v-9.9h-3v-3.8l3.3-.3.6-6.6h4.2v6.6h5.4v4h-5.4v9.9c0,2.4,1,3.6,3,3.6s1.5-.1,2.2-.4l.9,3.6c-1.1.5-2.7.9-4.4.9-4.9,0-6.7-3.1-6.7-7.7Z"/>
      <path class="st0" d="M309.4,71.4c0-1.7,1.2-2.9,3-2.9s3,1.2,3,2.9-1.2,2.9-3,2.9-3-1.2-3-2.9ZM309.8,77.8h5.1v21.1h-5.1v-21.1Z"/>
      <path class="st0" d="M320.2,88.4c0-7,4.8-11.1,10.1-11.1s10,4.1,10,11.1-4.8,11-10,11-10.1-4-10.1-11ZM335.1,88.4c0-4.2-1.8-6.9-4.8-6.9s-4.8,2.7-4.8,6.9,1.8,6.9,4.8,6.9,4.8-2.7,4.8-6.9Z"/>
      <path class="st0" d="M345,77.8h4.2l.4,2.8h.1c1.9-1.8,4-3.3,6.9-3.3,4.5,0,6.5,3.1,6.5,8.4v13.2h-5.1v-12.6c0-3.4-1-4.7-3.2-4.7s-3,.9-4.7,2.6v14.7h-5.1v-21.1Z"/>
    </g>
    <text class="st1" transform="translate(190.3 34.8)"><tspan x="0" y="0">die unabhängige</tspan></text>
  </g>
</svg>